<?xml version="1.0" encoding="utf-8"?>
<!-- Generator: Adobe Illustrator 16.0.0, SVG Export Plug-In . SVG Version: 6.00 Build 0)  -->
<!DOCTYPE svg PUBLIC "-//W3C//DTD SVG 1.1//EN" "http://www.w3.org/Graphics/SVG/1.1/DTD/svg11.dtd">
<svg version="1.1" id="Capa_1" xmlns="http://www.w3.org/2000/svg" xmlns:xlink="http://www.w3.org/1999/xlink" x="0px" y="0px"
	 width="595.28px" height="841.89px" viewBox="0 0 595.28 841.89" enable-background="new 0 0 595.28 841.89" xml:space="preserve">
<g>
	<path fill-rule="evenodd" clip-rule="evenodd" fill="#FFFFFF" d="M53,421.342c0-125.317,1.332-220.519,1.332-345.836
		c0-20.951,15.667-34.709,32.954-34.69c159.313,0.175,257.699-0.019,417.011-0.019c18.703,0,36.536,15.425,35.729,34.709
		c-0.104,250.968,0.704,438.285,0.808,689.254c0,20.131-18.167,38.182-36.35,38.119c-159.313-0.109-257.572-0.1-416.885,0.01
		c-17.6,0-34.692-17.129-34.692-38.129C52.906,639.109,53,546.994,53,421.342z M87.831,620.02c0,1.824,0,3.648,0,5.471
		c0,36.99,0.483,73.99-0.227,110.967c-0.304,15.811,11.378,28.338,28.377,28.303c119.967-0.234,239.936-0.123,359.904-0.125
		c18.198,0,28.598-10.32,28.598-28.379c0.002-111.303,0.001-222.607,0-333.911c0-25.58,0-51.16,0-76.743
		c-0.978,1.305-1.255,2.856-1.588,4.469c-2.115,10.261-4.026,20.58-6.59,30.731c-16.792,66.509-45.796,127.494-84.285,184.042
		c-31.707,46.584-68.784,88.244-114.909,121.148c-29.964,21.375-62.014,38.422-99.407,42.262
		c-36.246,3.719-66.194-7.949-87.915-38.07C98.926,655.121,92.807,637.982,87.831,620.02z M87.831,511.256
		c0.279,0.039,0.559,0.08,0.838,0.119c2.266-10.313,4.262-20.693,6.843-30.926c17.915-71.028,49.352-135.773,91.668-195.319
		c31.965-44.98,69.064-85.043,115.085-116.096c29.282-19.758,60.514-35.038,96.482-37.673c26.383-1.935,50.163,4.881,70.023,22.985
		c18.55,16.911,28.082,38.82,34.015,62.63c0.369,1.483,0.379,3.079,1.698,4.067c0-39.342-0.308-78.657,0.148-117.964
		c0.187-16.096-12.694-27.61-27.504-27.565c-120.636,0.366-241.272,0.381-361.907-0.009c-15.627-0.05-27.637,12.475-27.598,27.38
		c0.355,134.298,0.208,268.597,0.208,402.897C87.831,507.607,87.831,509.432,87.831,511.256z M290.669,556.834
		c10.66,0,21.32-0.08,31.979,0.051c2.908,0.037,4.006-0.883,4.419-3.863c5.177-37.393,10.514-74.762,15.774-112.143
		c6.282-44.631,12.516-89.269,18.806-133.899c0.968-6.87,0.973-7.192-6.012-6.869c-4.162,0.193-5.203-1.01-3.989-4.912
		c1.283-4.121-0.38-5.517-4.737-5.44c-13.986,0.247-27.983,0.229-41.97-0.001c-3.711-0.062-5.55,1.089-7.049,4.507
		c-6.981,15.916-18.172,27.26-35.617,31.37c-9.595,2.259-19.34,3.557-29.189,3.123c-4.94-0.218-6.522,1.734-7.029,6.41
		c-1.202,11.075-2.866,22.102-4.467,33.129c-0.952,6.557-1.038,6.857,5.328,6.452c4.508-0.287,6.034,0.953,4.651,5.353
		c-1.193,3.796,0.411,5.073,4.211,4.977c7.324-0.185,14.656-0.054,21.985-0.054c9.456,0,9.587,0.019,8.264,9.559
		c-6.739,48.596-13.542,97.182-20.352,145.768c-0.884,6.307-0.945,6.609,5.573,6.209c4.472-0.273,5.701,1.24,4.434,5.248
		c-1.363,4.309,0.701,5.137,4.507,5.078C270.347,556.73,280.509,556.834,290.669,556.834z"/>
	<path fill-rule="evenodd" clip-rule="evenodd" fill="#C23437" d="M87.831,620.02c4.977,17.963,11.095,35.102,21.958,50.166
		c21.72,30.121,51.668,41.789,87.915,38.07c37.393-3.84,69.443-20.887,99.407-42.262c46.125-32.904,83.202-74.564,114.909-121.148
		c38.489-56.549,67.493-117.533,84.285-184.042c2.563-10.152,4.475-20.47,6.59-30.731c0.333-1.613,0.61-3.165,1.588-4.469
		c0,25.583,0,51.163,0,76.743c0.001,111.303,0.002,222.608,0,333.911c0,18.059-10.399,28.379-28.598,28.379
		c-119.968,0.002-239.937-0.109-359.904,0.125c-16.999,0.035-28.681-12.492-28.377-28.303c0.709-36.977,0.227-73.977,0.227-110.967
		C87.831,623.668,87.831,621.844,87.831,620.02z M451.721,734.797c5.27-4.66,11.369-7.111,18.457-7.035
		c1.618,0.018,1.617-1.346,1.784-2.502c0.283-1.973,0.671-3.934,0.887-5.914c0.499-4.588-2.391-4.465-6.953-4.059
		c-5.124,0.457-5.499-5.92-4.889-9.844c1.734-11.164-2.243-20.354-0.757-31.553c0.888-6.684,4.028-11.23-2.779-11.242
		c-3.491-0.004-7.512,1.832-10.971,1.492c-3.785-0.373-4.179-0.287-4.629,3.158C439.264,687.221,440.84,706,438,725.891
		c-0.534,3.74-2.939,7.816,1.2,10.752c2.192,1.553,10.338,3.344,12.121,1.156c0.646-0.793,1.566-1.863,0.449-3.061L451.721,734.797z
		"/>
	<path fill-rule="evenodd" clip-rule="evenodd" fill="#C23437" d="M87.493,511.256c0-1.824,0-3.648,0-5.473
		c0-134.3,0.147-268.599-0.208-402.897c-0.039-14.905,11.97-27.43,27.598-27.38c120.635,0.39,241.271,0.375,361.908,0.009
		c14.809-0.045,27.689,11.469,27.504,27.565c-0.457,39.307-0.148,78.622-0.148,117.964c-1.32-0.988-1.33-2.584-1.699-4.067
		c-5.932-23.81-15.465-45.719-34.014-62.63c-19.861-18.104-43.641-24.92-70.023-22.985c-35.969,2.635-67.201,17.915-96.482,37.673
		c-46.021,31.053-83.12,71.115-115.085,116.096c-42.316,59.546-73.753,124.292-91.668,195.319
		c-2.581,10.232-4.577,20.613-6.843,30.926C88.052,511.336,87.772,511.295,87.493,511.256z M139.035,177.504
		c2.165,0,4.336-0.098,6.495,0.025c1.485,0.084,2.531-0.133,3.223-0.886c0.507-0.552,0.825-1.391,0.988-2.609
		c2.905-21.764,3.375-42.207,6.384-63.957c0.487-3.525-0.887-7.719-4.337-7.813c-2.83-0.076-5.088-1.228-7.92-1.259
		c-1.541-0.017-2.604,0.795-3.368,2.509c-3.257,7.315-9.65,9.188-17.203,8.507c-1.115-0.101-2.507,0.482-2.572,1.931
		c-0.174,3.856-2.225,6.851-0.688,10.063c0.604,1.262,3.93,0.529,5.25,1.375c1.427,0.915,0.018,3.596,2.605,3.565
		c2.7-0.033,4.621,0.059,4.107,3.248c-1.904,11.829-4.005,23.838-5.313,35.75c-0.606,5.526,7.35,9.551,7.35,9.551
		C135.35,177.546,137.369,177.505,139.035,177.504z"/>
	<path fill-rule="evenodd" clip-rule="evenodd" fill="#090609" d="M290.669,556.834c-10.16,0-20.322-0.104-30.48,0.053
		c-3.806,0.059-5.87-0.77-4.507-5.078c1.267-4.008,0.039-5.521-4.434-5.248c-6.518,0.4-6.457,0.098-5.573-6.209
		c6.81-48.586,13.612-97.172,20.352-145.768c1.323-9.54,1.192-9.559-8.264-9.559c-7.329,0-14.661-0.131-21.985,0.054
		c-3.8,0.096-5.404-1.181-4.211-4.977c1.383-4.4-0.144-5.64-4.651-5.353c-6.366,0.406-6.28,0.105-5.328-6.452
		c1.601-11.028,3.265-22.055,4.467-33.129c0.507-4.675,2.089-6.627,7.029-6.41c9.849,0.435,19.594-0.863,29.189-3.123
		c17.445-4.11,28.635-15.454,35.617-31.37c1.499-3.418,3.338-4.569,7.049-4.507c13.986,0.23,27.983,0.248,41.97,0.001
		c4.357-0.077,6.021,1.319,4.737,5.44c-1.214,3.902-0.173,5.105,3.989,4.912c6.984-0.323,6.979-0.001,6.012,6.869
		c-6.29,44.63-12.523,89.268-18.806,133.899c-5.261,37.381-10.598,74.75-15.774,112.143c-0.413,2.98-1.511,3.9-4.419,3.863
		C311.989,556.754,301.329,556.834,290.669,556.834z M281.203,541.959c9.16,0,18.321-0.066,27.48,0.043
		c2.58,0.029,3.866-0.596,4.255-3.449c3.21-23.561,6.577-47.098,9.883-70.645c7.93-56.477,15.829-112.959,23.838-169.426
		c0.447-3.151-0.281-4.086-3.463-4.048c-11.823,0.144-23.652,0.191-35.474-0.026c-3.502-0.064-5.314,1.063-6.843,4.236
		c-6.5,13.503-15.968,24.008-30.516,29.244c-11.114,4.001-22.667,5.284-34.321,5.453c-4.191,0.061-5.385,1.66-5.819,5.288
		c-1.049,8.751-1.931,17.548-3.613,26.185c-0.918,4.713,0.201,5.609,4.707,5.504c12.485-0.288,24.981-0.053,37.472-0.127
		c3.769-0.022,5.575,0.938,4.63,5.289c-1.125,5.186-1.583,10.519-2.317,15.788c-6.771,48.584-13.446,97.182-20.458,145.731
		c-0.684,4.734,0.625,5.15,4.578,5.037C263.877,541.789,272.542,541.959,281.203,541.959z"/>
	<path fill-rule="evenodd" clip-rule="evenodd" fill="#090609" d="M139.373,177.504c-1.666,0.001-3.332,0.006-4.998,0
		c-1.399-0.005-2.499,0.16-4.625,0.042c-0.734-0.041-0.438,0-0.313-3.156c0,0-3.875,0.25-3.813-0.5
		c0.16-1.922,0.248-3.01,0.669-5.963c1.692-11.863,3.221-23.751,5.125-35.58c0.514-3.189-0.489-3.391-3.189-3.392
		c-4.793-0.002-3.228-0.446-3.453-2.061c-0.064-0.459-6.227-0.558-6.22-1.129c0.033-2.561,1.33-8.941,2.068-12.668
		c0.282-1.422,1.895-1.183,3.009-1.075c6.365,0.618,13.533-2.003,16.79-9.318c0.763-1.714,2.24-1.714,3.781-1.697
		c2.832,0.031,9.587,0.636,12.417,0.713c1.216,0.033-0.187,3.891,0.066,4.231c0.291,0.391,1.76-0.054,2.397,0.429
		c0.382,0.29,0.22,0.729,0.007,2.402c-2.762,21.783-6.11,43.488-9.015,65.252c-0.163,1.218,0.166-1.19-0.516,3.168
		c-0.222,1.422-2.21,0.411-3.695,0.327C143.709,177.406,141.538,177.504,139.373,177.504z M135.868,172.695
		c1.998,0,3.999-0.061,5.994,0.018c1.897,0.073,2.922-0.29,3.235-2.608c2.893-21.421,5.955-42.819,8.937-64.228
		c0.127-0.914,0.524-1.178-0.272-2.015c-1.036-1.089-11.379-1.092-12.075,0.285c-3.534,6.997-9.788,8.992-16.914,9.575
		c-1.021,0.083-2.573-0.613-2.854,1.117c-0.451,2.784,0.533,4.006,1.269,6.489c0.5,1.686,1.801,2.334,3.867,2.522
		c1.321,0.12,2.677,0.151,3.991-0.005c1.717-0.204,3.011-0.329,3.268,0.733c0.116,0.479-0.316,1.599-0.43,2.364
		c-1.831,12.333-3.463,24.697-5.33,37.025C127.229,172.713,127.111,172.696,135.868,172.695z"/>
	<path fill-rule="evenodd" clip-rule="evenodd" fill="#C23437" d="M281.203,541.959c-8.661,0-17.326-0.17-25.98,0.076
		c-3.952,0.113-5.262-0.303-4.578-5.037c7.011-48.549,13.687-97.146,20.458-145.731c0.735-5.27,1.192-10.602,2.317-15.788
		c0.944-4.351-0.861-5.312-4.63-5.289c-12.491,0.074-24.987-0.161-37.472,0.127c-4.505,0.104-5.625-0.791-4.707-5.504
		c1.683-8.637,2.564-17.434,3.613-26.185c0.435-3.627,1.628-5.227,5.819-5.288c11.654-0.169,23.207-1.452,34.321-5.453
		c14.547-5.236,24.016-15.741,30.516-29.244c1.528-3.173,3.341-4.3,6.843-4.236c11.821,0.218,23.65,0.17,35.474,0.026
		c3.182-0.038,3.91,0.897,3.463,4.048c-8.009,56.467-15.908,112.95-23.838,169.426c-3.306,23.547-6.673,47.084-9.883,70.645
		c-0.389,2.854-1.675,3.479-4.255,3.449C299.524,541.893,290.363,541.959,281.203,541.959z"/>
	<path fill-rule="evenodd" clip-rule="evenodd" fill="#FFFFFF" d="M135.868,172.695c-8.756,0.001-8.639,0.019-7.315-8.728
		c1.867-12.328,3.499-24.692,5.33-37.025c0.172-1.155,0.529-3.047,0.43-2.364c-0.056,0.383-5.493-0.212-7.188-0.313
		c-5.679-0.334-6.957,0.477-6.625-1.25c0.625-3.25,0.96-5.394,1.419-8.176c0.394-2.386,0.622-1.654,2.894-1.511
		c7.136,0.449,13.654-3.234,17.188-10.231c0.322-0.638,3.14-0.16,6,0.044c3.31,0.235,6.361-0.063,6.333,1
		c-0.061,2.276-6.344,44.543-9.236,65.964c-0.313,2.318-1.338,2.681-3.235,2.608C139.866,172.634,137.866,172.695,135.868,172.695z"
		/>
</g>
<path fill-rule="evenodd" clip-rule="evenodd" fill="#C23437" d="M471.35,714.447"/>
<path fill-rule="evenodd" clip-rule="evenodd" fill="#C23437" d="M480.875,715.141"/>
<path fill-rule="evenodd" clip-rule="evenodd" fill="#090609" d="M136,125.265"/>
<path fill-rule="evenodd" clip-rule="evenodd" fill="#FFFFFF" d="M141.5,124.265"/>
<path fill-rule="evenodd" clip-rule="evenodd" fill="#FFFFFF" d="M126.938,114.515"/>
<path fill-rule="evenodd" clip-rule="evenodd" fill="#090609" d="M138.125,114.953"/>
<path fill-rule="evenodd" clip-rule="evenodd" fill="#090609" d="M123,128.203"/>
<path fill-rule="evenodd" clip-rule="evenodd" fill="#C23437" d="M120.451,129.64"/>
<path fill-rule="evenodd" clip-rule="evenodd" fill="#090609" d="M127.25,132.89"/>
<path fill-rule="evenodd" clip-rule="evenodd" fill="#FFFFFF" d="M155.813,107.265"/>
<path fill-rule="evenodd" clip-rule="evenodd" fill="#090609" d="M452.328,662.766c1.666-0.029,3.331-0.063,4.997-0.086
	c1.398-0.02,2.496-0.201,4.623-0.121c0.735,0.027,0.438-0.008,0.367,3.15c0,0,3.87-0.316,3.82,0.436
	c-0.128,1.924-0.197,3.014-0.567,5.973c-1.489,11.891-2.815,23.803-4.517,35.662c-0.459,3.197,0.548,3.383,3.247,3.336
	c4.793-0.078,3.235,0.393,3.488,2.004c0.072,0.457,6.234,0.449,6.237,1.021c0.013,2.561-1.177,8.963-1.851,12.701
	c-0.258,1.428-1.874,1.217-2.99,1.127c-6.375-0.51-13.497,2.234-16.628,9.604c-0.733,1.727-2.211,1.752-3.752,1.762
	c-2.832,0.016-9.597-0.473-12.427-0.5c-1.217-0.014,0.12-3.895-0.139-4.23c-0.297-0.387-1.759,0.084-2.404-0.389
	c-0.389-0.283-0.232-0.725-0.049-2.4c2.39-21.828,5.367-43.588,7.899-65.396c0.141-1.223-0.146,1.191,0.46-3.176
	c0.199-1.426,2.203-0.451,3.69-0.393C447.994,662.938,450.164,662.803,452.328,662.766z M455.916,667.514
	c-1.998,0.035-3.998,0.129-5.994,0.086c-1.898-0.043-2.917,0.338-3.19,2.662c-2.525,21.469-5.222,42.914-7.837,64.371
	c-0.112,0.916-0.505,1.188,0.306,2.01c1.055,1.072,11.397,0.896,12.068-0.492c3.414-7.055,9.633-9.156,16.748-9.861
	c1.02-0.102,2.583,0.568,2.834-1.166c0.404-2.791-0.602-3.996-1.379-6.465c-0.528-1.678-1.841-2.305-3.91-2.457
	c-1.322-0.098-2.679-0.105-3.989,0.072c-1.713,0.234-3.006,0.381-3.28-0.676c-0.122-0.477,0.29-1.605,0.39-2.373
	c1.62-12.361,3.04-24.752,4.696-37.109C464.553,667.348,464.67,667.361,455.916,667.514z"/>
<path fill-rule="evenodd" clip-rule="evenodd" fill="#FFFFFF" d="M456.327,667.014c8.754-0.152,8.637-0.166,7.462,8.602
	c-1.656,12.357-3.076,24.748-4.696,37.109c-0.152,1.16-0.477,3.057-0.39,2.373c0.05-0.385,5.496,0.119,7.192,0.189
	c5.684,0.236,6.947-0.596,6.645,1.137c-0.568,3.26-0.867,5.41-1.278,8.199c-0.353,2.393-0.594,1.664-2.867,1.561
	c-7.144-0.326-13.597,3.469-17.01,10.523c-0.312,0.643-3.138,0.213-6.001,0.059c-3.313-0.18-6.358,0.172-6.349-0.891
	c0.021-2.277,5.582-44.645,8.107-66.113c0.273-2.324,1.292-2.705,3.19-2.662C452.329,667.143,454.329,667.049,456.327,667.014z"/>
</svg>
