<?xml version="1.0" encoding="utf-8"?>
<!-- Generator: Adobe Illustrator 16.0.0, SVG Export Plug-In . SVG Version: 6.00 Build 0)  -->
<!DOCTYPE svg PUBLIC "-//W3C//DTD SVG 1.1//EN" "http://www.w3.org/Graphics/SVG/1.1/DTD/svg11.dtd">
<svg version="1.1" id="button" xmlns="http://www.w3.org/2000/svg" xmlns:xlink="http://www.w3.org/1999/xlink" x="0px" y="0px"
	 width="512px" height="512px" viewBox="0 0 512 512" enable-background="new 0 0 512 512" xml:space="preserve">
<path d="M447.494,399.494c0,6.627-5.373,12-12,12H114.986c-6.627,0-12-5.373-12-12V74.025c0-6.627,5.373-12,12-12h320.509
	c6.627,0,12,5.373,12,12V399.494z"/>
<path fill="#FFFFFF" d="M436.832,385.165c-1,6.627-6.373,12-13,12h-296c-6.627,0-12-5.373-12-12v-298c0-6.627,5.373-12,12-12h296
	c6.627,0,12,5.373,13,12V385.165z"/>
<path fill="#FF0000" d="M428.666,379.165c0,6.627-5.372,12-12,12H136.498c-6.627,0-12-5.373-12-12v-286c0-6.627,5.373-12,12-12
	h280.168c6.628,0,12,5.373,12,12V379.165z"/>
<path fill-rule="evenodd" clip-rule="evenodd" fill="#FFDE00" d="M325.802,187.042c0.247-13.747,3.699-26.559,12.189-37.54
	c4.489-5.806,10.271-10.108,17.383-12.881c4.901-1.912,9.695-3.652,14.916-3.934c14.934-0.803,26.434,5.825,36.069,16.652
	c7.912,8.893,12.761,19.353,14.649,30.865c1.113,6.785,1.79,13.794,0.837,20.883c-1.075,7.991-3.086,15.602-6.646,22.768
	c-4.708,9.477-10.147,14.831-19.952,20.026c-3.122,1.142-7.503,3.63-10.748,4.592c-7.704,2.283-15.608-0.283-22.84-2.709
	c-4.444-1.491-8.408-3.965-12.201-6.683c-9.171-6.57-14.435-16.018-18.565-26.104C327.518,204.735,325.563,196.083,325.802,187.042z
	 M346.457,184.867c0.559,11.919,4.117,22.611,12.155,31.685c10.438,11.778,26.349,9.052,35.387-1.064
	c7.946-8.894,8.15-19.904,6.23-30.836c-1.094-6.238-4.015-12.081-7.468-17.477c-6.627-10.356-19.664-15.575-31.526-8.823
	C350.745,164.323,346.984,173.537,346.457,184.867z"/>
<path fill-rule="evenodd" clip-rule="evenodd" fill="#010101" d="M315.968,171.382c3.132-6.761,6.808-12.149,10.922-17.172
	c6.994-8.544,14.724-16.565,24.769-21.367c8.864-4.237,18.108-6.719,28.522-4.531c16.591,3.487,27.479,13.45,35.977,27.313
	c4.431,7.228,7.399,15.022,8.88,23.097c1.436,7.832,2.28,15.813,0.999,24.091c-1.551,10.026-4.831,19.209-9.698,27.843
	c-6.627,11.76-15.07,22.198-26.806,29.195c-9.345,5.573-19.721,8.43-30.75,7.245c-3.344-0.358-6.827-0.958-9.903-2.648
	c-0.54-0.296-1.065-0.543-1.599-0.186c-0.7,0.473-0.098,1.017,0.035,1.518c0.386,1.478-0.063,2.476-1.185,3.642
	c-3.086,3.212-6.005,6.602-8.794,10.075c-2.216,2.757-5.456,3.653-8.398,5.035c-3.751,1.761-7.705,3.07-11.346,5.115
	c-2.364,1.327-5.454,1.368-8.907-1.876c-3.751-3.524-7.641-6.348-11.434-9.526c-5.212-4.372-10.917-8.157-16.401-12.211
	c-0.581-0.428-1.142-0.776-1.987-0.511c3.009,6.646,4.453,13.827,7.123,20.59c0.376,0.95,0.715,1.909,1.106,2.858
	c1.054,2.553,1.287,4.928-1.216,7.153c-2.374,2.112-4.427,4.643-6.352,7.19c-3.865,5.116-9.838,6.621-15.19,9.188
	c-3.536,1.696-7.194,3.139-10.718,4.862c-2.84,1.388-4.116,0.764-5.303-2.206c-1.317-3.299-2.779-6.517-3.361-10.055
	c-0.059-0.367-0.514-0.893-0.831-0.928c-0.293-0.032-0.765,0.43-0.961,0.783c-4.125,7.46-10.602,13.001-15.948,19.459
	c-4.825,5.829-10.83,10.287-17.773,13.361c-13.538,5.999-27.148,7.793-40.36-0.627c-8.229-5.243-13.511-12.948-17.417-21.914
	c-5.907-13.564-9.895-27.775-14.739-41.686c-3.609-10.366-6.721-20.915-10.47-31.242c-0.503-1.385,0.278-2.281,0.982-3.113
	c3.331-3.934,6.675-7.862,10.163-11.657c2.382-2.592,5.976-3.103,8.972-4.647c4.717-2.433,9.871-3.937,14.493-6.612
	c2.561-1.483,4.684-0.39,5.511,2.373c1.626,5.441,3.478,10.816,5.254,16.211c2.376,7.218,4.689,14.46,7.183,21.638
	c2.444,7.034,4.631,14.152,7.108,21.179c1.853,5.258,3.77,10.259,7.883,14.103c2.852,2.665,6.348,4.454,10.258,3.713
	c3.754-0.714,5.336-4.469,4.021-8.973c-2.39-8.197-4.746-16.423-7.7-24.42c-0.909-2.455-4.621-13.819-5.696-16.938
	c-1.958-5.683-3.816-11.401-5.708-17.105c-1.216-3.665-2.494-7.31-3.609-11.005c-0.952-3.155,2.19-4.506,3.399-6.661
	c0.612-1.09,2.184-2.024,2.958-3.201c4.656-7.08,12.467-8.972,19.474-12.295c6.103-2.893,12.514-5.027,18.532-8.149
	c5.063-2.627,10.532-4.461,15.792-6.721c1.482-0.636,2.228,0.576,3.017,1.16c9.879,7.323,19.682,14.752,29.514,22.142
	c0.161,0.121,0.438,0.09,0.853,0.165c0.148-2.516-5.349-16.417-7.571-22.805c-0.466-1.336-0.506-2.884,0.675-4.215
	c2.529-2.85,5.076-5.703,7.366-8.741c3.119-4.133,7.773-5.608,12.183-7.583c4.928-2.208,10.049-3.966,14.833-6.519
	c1.753-0.935,3.147-1.192,4.177,1.536C312.656,160.178,313.989,165.342,315.968,171.382z M341.834,262.874
	c-0.973-2.764-2.065-5.495-2.896-8.301c-2.497-8.439-5.413-16.748-8.135-25.108c-1.774-5.452-3.646-10.926-5.688-16.32
	c-2.679-7.079-4.778-14.379-7.123-21.585c-2.304-7.08-4.576-14.17-6.919-21.237c-1.069-3.23-2.319-6.401-3.397-9.628
	c-0.501-1.5-1.253-1.667-2.572-0.985c-3.885,2.005-7.893,3.697-12.004,5.222c-1.808,0.67-5.266,1.007-3.682,4.984
	c1.798,4.507,2.735,8.089,4.256,12.094c2.631,6.922,4.355,14.184,6.87,21.157c2.979,8.258,5.09,16.812,8.562,24.906
	c0.357,0.831,1.39,2.396,0.173,3.065c-1.01,0.556-2.141-0.384-3.225-1.219c-7.281-5.624-14.716-11.049-22.091-16.551
	c-4.953-3.697-10.197-7.03-15.045-10.815c-6.974-5.447-14.169-10.592-21.121-16.058c-1.286-1.012-2.177-1.038-3.68-0.354
	c-3.473,1.58-6.93,3.212-10.539,4.534c-1.703,0.624-5.334,1.13-4.146,4.472c2.272,6.386,4.474,12.779,6.475,19.264
	c3.119,10.106,6.71,20.067,10.118,30.083c2.506,7.37,5.37,14.643,7.449,22.129c1.485,5.347,3.809,10.39,5.079,15.801
	c0.85,3.624,2.243,7.119,3.452,10.653c0.574,1.678,0.832,3.994,2.046,4.804c1.884,1.258,12.62-4.897,16.075-6.244
	c1.856-0.724,2.338-2.009,1.705-3.697c-0.672-1.794-1.016-3.747-1.79-5.424c-2.43-5.264-3.86-10.887-5.603-16.333
	c-2.407-7.511-4.922-14.988-7.398-22.476c-2.018-6.104-4.095-12.19-6.127-18.291c-0.284-0.851-0.763-1.832,0.353-2.44
	c0.895-0.488,1.395,0.229,2.045,0.764c2.375,1.948,4.829,3.8,7.285,5.646c11.626,8.738,23.271,17.448,34.891,26.196
	c6.741,5.075,13.453,10.188,20.149,15.323c0.721,0.551,1.345,0.887,2.158,0.356c3.724-2.433,8.037-3.554,12.001-5.439
	C340.868,265.309,342.088,264.538,341.834,262.874z M325.802,187.042c-0.239,9.042,1.716,17.693,5.092,25.935
	c4.131,10.086,9.395,19.534,18.565,26.104c3.793,2.718,7.757,5.192,12.201,6.683c7.231,2.427,13.679,2.707,22.173,1.555
	c6.167-0.318,6.985-1.78,10.107-2.922c10.163-3.723,16.552-11.064,21.26-20.541c3.56-7.166,5.57-14.776,6.646-22.768
	c0.953-7.089,0.276-14.098-0.837-20.883c-1.889-11.513-6.737-21.973-14.649-30.865c-9.636-10.827-21.136-17.455-36.069-16.652
	c-5.221,0.281-10.015,2.022-14.916,3.934c-7.111,2.772-12.894,7.075-17.383,12.881C329.501,160.483,326.049,173.295,325.802,187.042
	z M224.241,275.851c0.745,6.257-1.275,11.664-5.051,16.528c-4.573,5.891-13.981,9.343-19.926,7.69
	c-9.175-2.554-13.713-9.924-16.694-18.072c-1.441-3.938-8.782-25.186-10.52-31.897c-2.981-7.966-5.503-16.836-8.023-25.353
	c-1.064-3.598-1.933-3.475-5.374-1.969c-3.524,1.542-6.903,3.411-10.598,4.648c-1.847,0.617-4.791,0.915-3.332,5.08
	c1.891,5.397,3.952,10.778,5.492,16.317c1.316,4.729,2.876,9.396,4.414,14.061c2.315,7.021,4.702,14.021,7.064,21.027
	c3.719,11.029,7.332,22.192,16.012,30.53c5.236,5.028,11.261,8.899,18.947,9.339c6.937,0.398,13.389-0.685,19.98-3.269
	c6.569-2.574,12.324-5.99,17.315-10.744c7.183-6.839,11.068-15.278,11.952-25.241c0.997-11.237-1.862-21.793-5.143-32.276
	c-2.672-8.542-5.754-16.956-8.593-25.446c-3.272-9.79-6.488-19.601-9.702-29.412c-0.543-1.657-1.228-2.228-2.994-1.232
	c-4.281,2.412-8.812,4.536-13.354,6.157c-3.638,1.299-3.816,2.966-2.688,5.482c4.245,9.465,7.095,19.427,10.297,29.235
	c2.443,7.484,5.25,14.877,7.208,22.513C222.31,264.924,225.177,270.019,224.241,275.851z"/>
<path fill-rule="evenodd" clip-rule="evenodd" fill="#FFDE00" d="M341.834,262.874c0.254,1.664-0.966,2.435-2.039,2.944
	c-3.964,1.886-8.277,3.007-12.001,5.439c-0.813,0.53-1.438,0.194-2.158-0.356c-6.696-5.136-13.408-10.248-20.149-15.323
	c-11.619-8.748-23.265-17.458-34.891-26.196c-2.456-1.846-4.91-3.699-7.285-5.646c-0.65-0.535-1.15-1.252-2.045-0.764
	c-1.115,0.608-0.637,1.59-0.353,2.44c2.032,6.1,4.109,12.186,6.127,18.291c2.477,7.488,4.991,14.965,7.398,22.476
	c1.742,5.446,3.173,11.069,5.603,16.333c0.774,1.677,1.118,3.63,1.79,5.424c0.633,1.688,0.151,2.974-1.705,3.697
	c-3.455,1.347-6.859,2.826-10.289,4.237c-0.204,0.082-0.492-0.023-0.683,0.073c-1.671,0.863-3.22,3.191-5.104,1.934
	c-1.214-0.81-1.472-3.126-2.046-4.804c-1.209-3.534-2.603-7.029-3.452-10.653c-1.27-5.411-3.594-10.454-5.079-15.801
	c-2.08-7.486-4.943-14.759-7.449-22.129c-3.407-10.016-6.999-19.977-10.118-30.083c-2.001-6.484-4.203-12.877-6.475-19.264
	c-1.188-3.342,2.443-3.848,4.146-4.472c3.609-1.322,7.066-2.955,10.539-4.534c1.502-0.684,2.394-0.658,3.68,0.354
	c6.952,5.466,14.147,10.611,21.121,16.058c4.848,3.785,10.092,7.119,15.045,10.815c7.375,5.502,14.81,10.928,22.091,16.551
	c1.084,0.835,2.215,1.775,3.225,1.219c1.217-0.669,0.185-2.234-0.173-3.065c-3.472-8.094-5.582-16.647-8.562-24.906
	c-2.515-6.973-4.239-14.235-6.87-21.157c-1.521-4.004-2.347-8.234-4.256-12.094c-1.896-3.837,1.874-4.313,3.682-4.984
	c4.111-1.524,8.119-3.217,12.004-5.222c1.319-0.682,2.071-0.515,2.572,0.985c1.078,3.227,2.328,6.398,3.397,9.628
	c2.343,7.067,4.615,14.158,6.919,21.237c2.345,7.206,4.444,14.506,7.123,21.585c2.043,5.394,3.914,10.868,5.688,16.32
	c2.722,8.361,5.638,16.669,8.135,25.108C339.769,257.379,340.862,260.11,341.834,262.874z"/>
<path fill-rule="evenodd" clip-rule="evenodd" fill="#FFDE00" d="M224.241,275.851c-0.132-5.577-1.931-10.927-3.31-16.305
	c-1.958-7.636-4.765-15.029-7.208-22.513c-3.202-9.809-6.052-19.771-10.297-29.235c-1.128-2.516-0.95-4.183,2.688-5.482
	c4.542-1.621,9.072-3.746,13.354-6.157c1.766-0.996,2.451-0.425,2.994,1.232c3.214,9.811,6.43,19.622,9.702,29.412
	c2.839,8.491,5.92,16.904,8.593,25.446c3.281,10.483,6.14,21.039,5.143,32.276c-0.884,9.963-4.77,18.402-11.952,25.241
	c-4.991,4.754-10.746,8.17-17.315,10.744c-6.591,2.584-13.043,3.667-19.98,3.269c-7.686-0.439-13.711-4.311-18.947-9.339
	c-8.68-8.338-12.293-19.501-16.012-30.53c-2.363-7.007-4.749-14.006-7.064-21.027c-1.538-4.664-3.098-9.331-4.414-14.061
	c-1.54-5.539-3.601-10.919-5.492-16.317c-1.459-4.165,1.485-4.462,3.332-5.08c3.695-1.237,7.074-3.106,10.598-4.648
	c3.441-1.505,4.492-1.678,5.374,1.969c2.09,8.645,5.795,16.747,8.023,25.353c1.738,6.712,8.712,28.112,10.52,31.897
	c3.962,8.295,7.519,15.519,16.694,18.072c5.944,1.652,15.353-1.8,19.926-7.69C222.966,287.515,223.966,282.546,224.241,275.851z"/>
<path fill-rule="evenodd" clip-rule="evenodd" fill="#010101" d="M346.457,184.867c0.526-11.33,4.288-20.544,14.778-26.515
	c11.862-6.752,24.899-1.533,31.526,8.823c3.453,5.396,6.374,11.238,7.468,17.477c1.92,10.932,1.716,21.943-6.23,30.836
	c-9.038,10.117-24.949,12.843-35.387,1.064C350.574,207.478,347.016,196.786,346.457,184.867z M374.492,220.148
	c2.124-0.057,4.205-0.021,6.15-0.983c3.952-1.953,5.991-8.581,5.226-12.138c-0.79-3.667-1.063-7.387-2.198-11.052
	c-3.074-9.937-7.706-18.33-18.064-22.215c-8.406-3.153-15.73,1.766-15.676,10.578c0.054,8.383,2.33,16.446,6.625,23.726
	C360.575,214.875,366.093,219.744,374.492,220.148z"/>
</svg>
