<svg xmlns="http://www.w3.org/2000/svg" xmlns:xlink="http://www.w3.org/1999/xlink" width="407" height="407" viewBox="0 0 407 407"><defs><clipPath id="a"><circle cx="193.5" cy="193.5" r="193.5" transform="translate(325 153)" fill="#fff" stroke="#fff" stroke-width="50"/></clipPath></defs><g transform="translate(-886 -363)"><path d="M203.5,0C315.89,0,407,91.11,407,203.5S315.89,407,203.5,407,0,315.89,0,203.5,91.11,0,203.5,0Z" transform="translate(886 363)" fill="#fff"/><g transform="translate(571 220)" clip-path="url(#a)"><g transform="translate(213.7 84.314)"><path d="M495.552,442.4a13.289,13.289,0,0,1-13.289,13.289H127.335A13.289,13.289,0,0,1,114.046,442.4V81.975a13.289,13.289,0,0,1,13.289-13.289h354.93a13.289,13.289,0,0,1,13.289,13.289V442.4Z" stroke="#707070" stroke-width="1.107"/><path d="M483.745,426.53c-1.107,7.339-7.057,13.289-14.4,13.289H141.56a13.289,13.289,0,0,1-13.289-13.289v-330A13.289,13.289,0,0,1,141.56,83.237H469.349c7.339,0,13.289,5.95,14.4,13.289Z" fill="#fff" stroke="#707070" stroke-width="1.107"/><path d="M677.368,553.107c0,10.3-9.528,18.653-21.284,18.653H159.153c-11.754,0-21.284-8.352-21.284-18.653V108.535c0-10.3,9.53-18.653,21.284-18.653H656.084c11.756,0,21.284,8.352,21.284,18.653Z" transform="translate(-86.423 -64.181)" fill="red" stroke="#707070" stroke-width="1.107"/><path d="M360.791,207.129c.274-15.223,4.1-29.411,13.5-41.572a44.038,44.038,0,0,1,19.25-14.264c5.427-2.117,10.736-4.044,16.518-4.356,16.538-.889,29.273,6.451,39.943,18.44a66.991,66.991,0,0,1,16.222,34.18c1.233,7.514,1.982,15.275.927,23.126a79.9,79.9,0,0,1-7.36,25.213c-5.214,10.495-11.237,16.424-22.095,22.177-3.457,1.265-8.309,4.02-11.9,5.085-8.531,2.528-17.284-.313-25.293-3a51.723,51.723,0,0,1-13.511-7.4c-10.156-7.276-15.985-17.738-20.559-28.907A70.454,70.454,0,0,1,360.791,207.129Zm22.873-2.409c.619,13.2,4.559,25.039,13.46,35.088,11.559,13.043,29.179,10.024,39.187-1.178,8.8-9.849,9.025-22.042,6.9-34.148-1.211-6.908-4.446-13.378-8.27-19.354-7.339-11.468-21.776-17.248-34.912-9.771C388.413,181.97,384.248,192.174,383.665,204.721Z" fill="#ffde00" stroke="#707070" stroke-width="1.107" fill-rule="evenodd"/><path d="M349.9,189.787A87.061,87.061,0,0,1,362,170.771c7.745-9.462,16.305-18.344,27.429-23.662,9.816-4.692,20.053-7.441,31.585-5.018,18.373,3.861,30.43,14.894,39.841,30.246a74.557,74.557,0,0,1,9.834,25.577c1.59,8.673,2.525,17.511,1.106,26.678a90.14,90.14,0,0,1-10.74,30.833c-7.339,13.023-16.688,24.582-29.685,32.33-10.349,6.172-21.839,9.335-34.052,8.023a28.885,28.885,0,0,1-10.966-2.932c-.6-.328-1.179-.6-1.771-.206-.775.524-.109,1.126.039,1.681.427,1.637-.07,2.742-1.312,4.033-3.417,3.557-6.65,7.311-9.738,11.157-2.454,3.053-6.042,4.045-9.3,5.576-4.154,1.95-8.532,3.4-12.564,5.664-2.618,1.47-6.04,1.515-9.864-2.077-4.154-3.9-8.462-7.03-12.662-10.549-5.772-4.842-12.089-9.033-18.162-13.522a2.26,2.26,0,0,0-2.2-.566c3.332,7.36,4.931,15.312,7.888,22.8.416,1.052.792,2.114,1.225,3.165,1.167,2.827,1.425,5.457-1.347,7.921a54.535,54.535,0,0,0-7.034,7.962c-4.28,5.665-10.895,7.332-16.821,10.175-3.916,1.878-7.967,3.476-11.869,5.384-3.145,1.537-4.558.846-5.873-2.443-1.458-3.653-3.077-7.217-3.722-11.135a1.468,1.468,0,0,0-.92-1.028c-.324-.035-.847.476-1.064.867-4.568,8.261-11.741,14.4-17.661,21.549a53.241,53.241,0,0,1-19.682,14.8c-14.992,6.643-30.064,8.63-44.694-.694-9.113-5.806-14.962-14.339-19.287-24.267-6.541-15.021-10.958-30.758-16.322-46.163-4-11.479-7.443-23.161-11.594-34.6-.557-1.534.308-2.526,1.087-3.447,3.689-4.357,7.392-8.706,11.254-12.909,2.638-2.87,6.618-3.436,9.936-5.146,5.224-2.694,10.931-4.36,16.049-7.322,2.836-1.642,5.187-.432,6.1,2.628,1.8,6.025,3.852,11.978,5.818,17.952,2.631,7.993,5.193,16.013,7.954,23.962,2.706,7.789,5.128,15.672,7.871,23.453,2.052,5.823,4.175,11.361,8.73,15.618,3.158,2.951,7.03,4.932,11.36,4.112,4.157-.791,5.909-4.949,4.453-9.937-2.647-9.077-5.256-18.187-8.527-27.043-1.007-2.719-5.117-15.3-6.308-18.757-2.168-6.293-4.226-12.625-6.321-18.942-1.347-4.059-2.762-8.1-4-12.187-1.054-3.494,2.425-4.99,3.764-7.376.678-1.207,2.419-2.241,3.276-3.545,5.156-7.84,13.806-9.936,21.565-13.615,6.758-3.2,13.858-5.567,20.522-9.024,5.607-2.909,11.663-4.94,17.488-7.443,1.641-.7,2.467.638,3.341,1.285,10.94,8.109,21.8,16.336,32.684,24.52.178.134.485.1.945.183.164-2.786-5.923-18.18-8.384-25.254a4.465,4.465,0,0,1,.748-4.668c2.8-3.156,5.621-6.315,8.157-9.68,3.454-4.577,8.608-6.21,13.491-8.4,5.457-2.445,11.128-4.392,16.426-7.219,1.941-1.035,3.485-1.32,4.626,1.7C346.233,177.38,347.71,183.1,349.9,189.787Zm28.644,101.318c-1.078-3.061-2.287-6.085-3.207-9.192-2.765-9.345-5.994-18.547-9.009-27.8-1.965-6.038-4.038-12.1-6.3-18.073-2.967-7.839-5.291-15.923-7.888-23.9-2.551-7.84-5.067-15.692-7.662-23.518-1.184-3.577-2.568-7.088-3.762-10.662-.555-1.661-1.388-1.846-2.848-1.091a119.4,119.4,0,0,1-13.293,5.783c-2,.742-5.832,1.115-4.077,5.519,1.991,4.991,3.029,8.958,4.713,13.393,2.914,7.665,4.823,15.707,7.608,23.429,3.3,9.145,5.637,18.618,9.481,27.581.4.92,1.539,2.653.192,3.394-1.118.616-2.371-.425-3.571-1.35-8.063-6.228-16.3-12.236-24.463-18.328-5.485-4.094-11.292-7.785-16.661-11.976-7.723-6.032-15.691-11.73-23.389-17.783-1.424-1.121-2.411-1.149-4.075-.392-3.846,1.75-7.674,3.557-11.671,5.021-1.886.691-5.907,1.251-4.591,4.952,2.516,7.072,4.954,14.151,7.17,21.333,3.454,11.191,7.431,22.222,11.2,33.314,2.775,8.161,5.947,16.216,8.249,24.505,1.644,5.921,4.218,11.506,5.624,17.5.941,4.013,2.484,7.884,3.823,11.8.636,1.858.921,4.423,2.266,5.32,2.086,1.393,13.975-5.423,17.8-6.915,2.055-.8,2.589-2.225,1.888-4.094-.744-1.987-1.125-4.149-1.982-6.007-2.691-5.829-4.275-12.056-6.2-18.087-2.665-8.318-5.451-16.6-8.192-24.89-2.235-6.76-4.535-13.5-6.785-20.255-.314-.942-.845-2.029.391-2.7.991-.54,1.545.254,2.265.846,2.63,2.157,5.348,4.208,8.067,6.252q19.312,14.515,38.638,29.009,11.2,8.43,22.313,16.969c.8.61,1.489.982,2.39.394,4.124-2.694,8.9-3.936,13.29-6.023C377.475,293.8,378.826,292.948,378.545,291.105Zm-17.754-83.976a70.433,70.433,0,0,0,5.639,28.72c4.575,11.169,10.4,21.632,20.559,28.907a51.724,51.724,0,0,0,13.511,7.4c8.008,2.688,15.148,3,24.554,1.722,6.829-.352,7.735-1.971,11.192-3.236,11.254-4.123,18.33-12.252,23.543-22.747a79.923,79.923,0,0,0,7.36-25.213c1.055-7.85.306-15.612-.927-23.126A66.992,66.992,0,0,0,450,165.378c-10.671-11.99-23.406-19.33-39.943-18.44-5.782.311-11.091,2.239-16.518,4.356a44.036,44.036,0,0,0-19.25,14.264C364.888,177.718,361.065,191.906,360.791,207.129ZM248.323,305.476c.825,6.929-1.412,12.917-5.593,18.3-5.064,6.524-15.482,10.346-22.066,8.516-10.16-2.828-15.186-10.99-18.487-20.013-1.6-4.361-9.725-27.891-11.65-35.323-3.3-8.822-6.094-18.644-8.885-28.076-1.178-3.984-2.141-3.848-5.951-2.18-3.9,1.708-7.644,3.777-11.736,5.147-2.045.683-5.306,1.013-3.69,5.626,2.094,5.977,4.376,11.935,6.082,18.069,1.457,5.237,3.185,10.405,4.888,15.571,2.564,7.775,5.207,15.527,7.823,23.285,4.118,12.213,8.119,24.575,17.732,33.809,5.8,5.568,12.47,9.855,20.982,10.342a51.076,51.076,0,0,0,22.126-3.62,57.655,57.655,0,0,0,19.175-11.9,42.413,42.413,0,0,0,13.236-27.952c1.1-12.444-2.062-24.133-5.7-35.742-2.959-9.459-6.372-18.777-9.516-28.179q-5.435-16.262-10.744-32.571c-.6-1.835-1.36-2.467-3.316-1.364a96.616,96.616,0,0,1-14.788,6.818c-4.029,1.438-4.226,3.285-2.977,6.071,4.7,10.482,7.857,21.513,11.4,32.375,2.705,8.288,5.814,16.475,7.982,24.931C246.185,293.375,249.36,299.018,248.323,305.476Z" fill="#010101" stroke="#707070" stroke-width="1.107" fill-rule="evenodd"/><path d="M378.545,291.105c.281,1.843-1.07,2.7-2.258,3.26-4.39,2.089-9.166,3.33-13.29,6.023-.9.587-1.592.215-2.39-.394q-11.123-8.531-22.313-16.969-19.3-14.531-38.638-29.009c-2.72-2.044-5.437-4.1-8.067-6.252-.72-.592-1.273-1.386-2.265-.846-1.235.673-.705,1.761-.391,2.7,2.25,6.755,4.55,13.495,6.785,20.255,2.743,8.292,5.527,16.572,8.192,24.89,1.929,6.031,3.514,12.258,6.2,18.087.857,1.857,1.238,4.02,1.982,6.007.7,1.869.167,3.293-1.888,4.094-3.826,1.492-7.6,3.13-11.394,4.692-.226.091-.545-.025-.756.081-1.85.956-3.566,3.534-5.652,2.142-1.344-.9-1.63-3.462-2.266-5.32-1.339-3.914-2.883-7.784-3.823-11.8-1.406-5.992-3.98-11.577-5.624-17.5-2.3-8.29-5.474-16.344-8.249-24.505-3.773-11.092-7.751-22.122-11.2-33.314-2.216-7.18-4.654-14.26-7.17-21.333-1.316-3.7,2.705-4.261,4.591-4.952,4-1.464,7.825-3.272,11.671-5.021,1.663-.757,2.651-.729,4.075.392,7.7,6.053,15.666,11.751,23.389,17.783,5.369,4.191,11.176,7.884,16.661,11.976,8.167,6.093,16.4,12.1,24.463,18.328,1.2.925,2.453,1.966,3.571,1.35,1.348-.741.2-2.474-.192-3.394-3.845-8.963-6.181-18.435-9.482-27.581-2.785-7.722-4.694-15.764-7.608-23.429-1.684-4.434-2.6-9.118-4.713-13.393-2.1-4.249,2.075-4.776,4.077-5.519a119.181,119.181,0,0,0,13.293-5.783c1.461-.755,2.293-.57,2.848,1.091,1.194,3.574,2.578,7.085,3.762,10.662,2.595,7.826,5.111,15.678,7.662,23.518,2.6,7.98,4.921,16.064,7.888,23.9,2.262,5.973,4.334,12.035,6.3,18.073,3.014,9.259,6.243,18.459,9.009,27.8C376.258,285.02,377.469,288.044,378.545,291.105Z" fill="#ffde00" stroke="#707070" stroke-width="1.107" fill-rule="evenodd"/><path d="M248.323,305.476c-.146-6.176-2.138-12.1-3.665-18.056-2.168-8.456-5.277-16.643-7.982-24.931-3.546-10.862-6.7-21.894-11.4-32.375-1.249-2.786-1.052-4.632,2.977-6.071a96.768,96.768,0,0,0,14.788-6.818c1.956-1.1,2.714-.471,3.316,1.364q5.339,16.3,10.744,32.571c3.144,9.4,6.556,18.719,9.516,28.179,3.633,11.609,6.8,23.3,5.7,35.742a42.418,42.418,0,0,1-13.236,27.952,57.655,57.655,0,0,1-19.175,11.9,51.077,51.077,0,0,1-22.126,3.62c-8.511-.486-15.183-4.774-20.982-10.342-9.612-9.233-13.613-21.6-17.732-33.809-2.617-7.759-5.259-15.51-7.823-23.285-1.7-5.165-3.431-10.333-4.888-15.571-1.705-6.134-3.988-12.092-6.082-18.069-1.616-4.612,1.644-4.941,3.69-5.626,4.092-1.37,7.834-3.44,11.736-5.147,3.811-1.667,4.974-1.858,5.951,2.18,2.314,9.573,6.417,18.546,8.885,28.076,1.925,7.433,9.648,31.131,11.65,35.323,4.388,9.186,8.327,17.186,18.487,20.013,6.582,1.829,17-1.993,22.066-8.516C246.911,318.392,248.019,312.89,248.323,305.476Z" fill="#ffde00" stroke="#707070" stroke-width="1.107" fill-rule="evenodd"/><path d="M383.665,204.721c.582-12.547,4.749-22.75,16.365-29.363,13.136-7.477,27.573-1.7,34.912,9.771,3.824,5.975,7.059,12.445,8.27,19.354,2.126,12.106,1.9,24.3-6.9,34.148-10.009,11.2-27.628,14.222-39.187,1.178C388.224,229.76,384.284,217.92,383.665,204.721Zm31.046,39.07c2.352-.063,4.657-.023,6.81-1.089,4.376-2.163,6.634-9.5,5.787-13.442-.875-4.061-1.177-8.18-2.434-12.239-3.4-11-8.534-20.3-20-24.6-9.309-3.492-17.419,1.956-17.359,11.714a52.034,52.034,0,0,0,7.336,26.274C399.3,237.951,405.409,243.343,414.71,243.791Z" fill="#010101" stroke="#707070" stroke-width="1.107" fill-rule="evenodd"/></g></g></g></svg>