<?xml version="1.0" encoding="utf-8"?>
<!-- Generator: Adobe Illustrator 16.0.0, SVG Export Plug-In . SVG Version: 6.00 Build 0)  -->
<!DOCTYPE svg PUBLIC "-//W3C//DTD SVG 1.1//EN" "http://www.w3.org/Graphics/SVG/1.1/DTD/svg11.dtd">
<svg version="1.1" id="Capa_1" xmlns="http://www.w3.org/2000/svg" xmlns:xlink="http://www.w3.org/1999/xlink" x="0px" y="0px"
	 width="538.583px" height="396.85px" viewBox="0 0 538.583 396.85" enable-background="new 0 0 538.583 396.85"
	 xml:space="preserve">
<g>
	<path fill-rule="evenodd" clip-rule="evenodd" fill="#FD1B22" d="M430.674,278.183c-3.842,3.557-4.066,4.152-7.748,8.279
		c-9.697,9.807-21.303,20.094-31.752,28.484c-10.332,8.297-21.285,15.777-32.512,22.799c-14.26,8.918-29.238,16.555-44.484,23.648
		c-8.609,4.006-17.703,6.807-26.516,10.307c-8.543,3.395-17.433,5.695-26.28,7.875c-6.243,1.537-12.22,3.859-18.705,4.762
		c-9,1.873-16.7,2.695-25.75,3.625c-15.625,2.5-54.652-0.939-60.876-2.262c-3.624-0.363-7.042-1.141-10.583-1.904
		c-10.878-2.348-21.28-5.879-31.478-10.182c0.721-1.402,2.099-1.184,3.319-1.33c25.896-3.084,49.014-12.145,67.532-31.223
		c5.688-5.859,11.488-11.611,17.331-17.316c3.636-3.551,4.918-3.236,6.907,1.402c0.832,1.941,1.413,3.99,2.346,5.883
		c2.067,4.189,5.415,5.701,9.776,4.086c14.654-5.42,29.365-10.691,43.914-16.391c4.616-1.809,7.452-5.932,11.007-9.086
		c4.207-3.732,7.965-7.961,12.02-11.869c3.916-3.777,4.789-7.977,2.734-13.045c-2.061-5.086-3.959-10.244-5.758-15.43
		c-0.477-1.377-1.551-3.15-0.004-4.271c1.283-0.93,2.678,0.322,3.813,1.1c12.412,8.512,25.516,16.004,37.404,25.291
		c2.65,2.072,5.619,2.666,8.725,1.217c11.492-5.363,22.711-10.047,34.246-15.67c5.578-3.518,10.691-6.441,15.273-10.75
		c3.271-3.076,7.813-7.154,10.764-10.572c0.963-2.928,3.621-1.074,6.266-0.574c5.277,1,10.574,1.314,15.943,1.451
		c10.123,0.256,19.896-1.396,29.5-4.393c1.088-0.34,3.629-0.537,8.254-2.037c-2.99,3.625-3.477,3.717-4.354,4.777
		c-3.479,4.213-6.754,9.086-10.141,12.865C437.637,271.25,433.66,275.576,430.674,278.183z"/>
	<path fill-rule="evenodd" clip-rule="evenodd" fill="#010101" d="M134.203,294.65c0.275-0.057,0.553-0.17,0.826-0.158
		c9.402,0.398,12.024-3.133,11.207-12.693c-0.952-11.141-6.022-21.037-9.778-31.3c-9.617-26.272-19.48-52.454-29.307-78.648
		c-0.73-1.946-0.798-3.374,0.959-4.8c1.631-1.322,3.238-2.78,4.483-4.455c10.041-13.519,24.903-18.841,39.955-24.164
		c19.342-6.841,38.507-14.188,57.688-21.474c2.568-0.976,4.327-0.646,6.551,0.82c18.292,12.063,36.674,23.988,55.977,36.574
		c-2.149-5.741-3.959-10.574-5.769-15.408c-2.957-7.895-5.831-15.824-8.933-23.662c-0.753-1.9-0.455-2.952,0.912-4.375
		c4.552-4.738,9.536-9.049,13.58-14.301c3.23-4.197,7.621-6.726,12.738-8.49c11.955-4.125,23.793-8.612,35.547-13.287
		c3.166-1.259,3.967-0.399,4.949,2.409c3.039,8.69,6.371,17.277,9.707,26.223c2.83-3.449,3.377-7.973,6.643-10.764
		c4.441-2.826,7.482-7.01,10.646-11.059c3.977-5.088,7.754-10.372,13.445-13.757c1.33-0.791,2.852-2.644,4.404-0.785
		c1.293,1.549-0.348,2.779-1.313,3.951c-1.516,1.84-2.412,4.132-4.232,5.757c-1.322,1.179-0.58,2.596-0.354,3.947
		c0.008,1.623-0.791,2.975-1.463,4.364c-12.123,25.077-13.256,50.904-3.178,76.604c9.281,23.668,24.689,42.621,48.643,53.105
		c17.424,7.628,35.414,8.05,53.709,3.038c6.148-1.683,11.637-4.927,17.732-6.625c1.51,0.832,2.859,1.652,4.559,0.008
		c3.523-3.412,8.574-4.823,11.68-8.891c1.123-1.472,2.924-1.857,4.443-0.374c1.355,1.325,0.953,2.78-0.15,4.144
		c-7.096,8.771-15.516,16.162-24.375,23.055c-4.984,3.879-10.297,7.309-16.352,9.383c0.293,0.449,1.215,0.633,0.619,1.459
		c-12.77,6.562-26.436,9.217-40.686,9.498c-10.791,0.215-21.24-1.473-31.299-5.292c-0.203,0.435-0.475,0.776-0.4,0.89
		c2.73,4.132,0.48,6.568-2.207,9.953c-11.402,14.361-27.1,20.977-43.705,26.959c-8.129,2.93-13.822,2.555-20.932-2.527
		c-17.027-12.17-34.799-23.301-53.328-35.551c3.037,8.156,5.668,15.268,8.334,22.363c2.523,6.715,4.928,13.48,7.693,20.094
		c1.256,3.004,0.449,5.004-1.639,7.057c-5.621,5.529-11.188,11.111-16.741,16.709c-1.233,1.242-2.709,1.977-4.306,2.57
		c-13.572,5.051-27.168,10.039-40.691,15.221c-2.399,0.918-3.042,0.197-3.792-1.916c-2.445-6.889-5.105-13.701-7.841-20.965
		c-9.028,12.604-20.47,22.578-31.271,33.119c-16.772,16.367-37.429,24.789-60.542,26.775c-30.308,2.604-52.174-11.152-67.658-36.438
		c-6.665-10.885-10.681-22.92-15.114-34.766c-8.91-23.813-17.712-47.666-26.56-71.502c-0.489-1.316-0.768-2.775-1.52-3.922
		c-4.782-7.299-2.592-12.74,4.017-17.559c2.749-2.003,4.802-4.959,7.171-7.482c1.119,0.475,1.711,0.025,2.575-0.849
		c2.125-2.154,4.218-4.467,7.21-5.508c3.407-1.186,4.994-0.269,5.896,3.326c2.516,8.972,6.185,17.524,9.448,26.218
		c9.845,26.228,19.016,52.73,29.955,78.516c7.356,17.338,19.299,31.025,37.505,38.063c11.065,4.277,22.602,4.762,34.112,2.928
		c14.934-2.379,28.832-7.918,41.086-16.811c16.216-11.768,25.083-27.563,25.595-48.021c0.367-14.723-3.333-28.452-8.495-41.912
		c-10.585-27.6-20.319-55.513-30.905-83.112c-2.277-5.937-2.536-6.245-8.489-3.894c-7.204,2.844-14.493,5.455-21.735,8.192
		c-4.26,1.609-4.514,2.348-2.841,6.633c11.112,28.456,21.065,57.343,32.044,85.851c3.293,8.55,5.438,17.445,3.814,26.842
		c-2.634,15.238-11.674,24.951-25.961,29.842c-5.846,2.002-12.035,3.064-18.283,1.266c-1.477-0.426-3.085-0.586-3.852-2.221
		c0.313-2.545,2.143-1.566,3.477-1.387c3.704,0.496,7.431,0.807,10.286,1.338c1.406,0.027,0.934-0.84,1.004-0.279
		c0.021,0.162-0.107,0.311-0.264,0.223c-1.078-0.605-4.315,1.367-2.829-2.35c0.106-0.268-0.222-0.055-0.307-0.043
		C136.169,296.375,134.575,296.912,134.203,294.65z"/>
	<path fill-rule="evenodd" clip-rule="evenodd" fill="#FD1B22" d="M420.701,28.312c-35.867,6.668-61.465,28.59-83.482,56.336
		c-1.594-4.226-3.098-8.303-4.664-12.356c-2.369-6.125-6.209-8.017-12.309-5.767c-14.375,5.3-28.684,10.78-43.063,16.066
		c-2.902,1.065-5.064,2.954-7.104,5.071c-6.125,6.359-12.18,12.786-18.295,19.154c-2.735,2.849-3.32,6.005-1.897,9.69
		c2.106,5.453,4.076,10.958,6.507,17.533c-9.375-6.096-17.799-11.567-26.215-17.048c-3.767-2.453-7.578-4.843-11.264-7.415
		c-2.944-2.053-5.936-2.204-9.192-0.988c-28.036,10.466-56.077,20.92-84.128,31.349c-1.764,0.657-3.227,1.672-4.535,2.972
		c-6.479,6.441-12.912,12.931-19.458,19.305c-3.418,3.329-4.175,6.771-2.426,11.409c12.204,32.366,24.197,64.809,36.255,97.229
		c1.23,3.309,2.146,6.705,2.493,10.219c0.323,3.273-1.106,4.715-4.513,4.143c-6.104-1.025-10.465-4.531-13.887-9.451
		c-4.491-6.455-6.437-14.031-9.186-21.23C103.072,235.49,96,216.375,88.884,197.277c-3.63-9.739-7.243-19.488-10.755-29.271
		c-1.178-3.281-3.183-5.562-6.49-6.675c-0.792-2.507,1.075-4.129,2.14-5.924c1.47-2.477,3.408-4.66,5.01-7.064
		c3.526-3.92,6.11-8.594,9.825-12.366c2.619-3.35,5.416-6.552,8.075-9.87c5.861-7.356,13.26-13.263,19.266-20.483
		c2.536-1.435,4.089-4.045,6.58-5.536c3.535-4.096,7.523-7.703,11.809-10.991c5.416-4.35,10.743-8.814,16.42-12.831
		c2.542-1.42,4.408-3.709,6.802-5.319c1.059-0.424,2.049-0.976,2.958-1.674c6.189-4.184,12.634-7.95,19.062-11.744
		c4.52-3.017,9.491-5.284,13.943-8.415c6.341-2.275,12.065-5.841,18.132-8.688c3.468-1.61,6.866-3.373,10.39-4.867
		c5.435-1.409,10.521-3.723,15.61-6.028c0.376-0.188,0.766-0.343,1.16-0.489c2.877-0.638,5.603-1.747,8.371-2.727
		c5.103-2.007,10.43-3.279,15.669-4.847c5.73-1.243,11.317-3.042,17.081-4.167c2.615-0.51,5.199-1.038,7.859-1.164
		c3.627-0.592,5.688-1.261,9.154-1.594c20.516-4.288,41.326-3.944,62.051-3.143c6.832,0.264,20.514,2.812,29.91,4.935
		c6.313,1.001,11.443,2.577,16.984,4.397c3.299,1.083,6.607,2.315,9.85,3.628C417.75,25.17,419.775,26.471,420.701,28.312z"/>
	<path fill-rule="evenodd" clip-rule="evenodd" fill="#060606" d="M460.604,240.021c-0.83-0.969-1.617-1.647,0.287-2.613
		c7.354-3.729,14.283-8.105,20.596-13.496c2.254-1.924,4.078-4.198,6.258-6.137c4.279-3.807,8.863-7.268,12.193-12.063
		c0.818-1.176,1.539-2.071,0.398-3.232c-1.162-1.181-2.525-0.754-3.24,0.406c-3.107,5.031-9.188,6.186-13.092,10.185
		c-0.715,0.731-2.262,0.865-3.412,0.835c-0.393-0.01,1.326-1.248,0.123-2.041c-0.008-1.979,1.756-2.395,2.963-3.203
		c3.279-2.197,6.605-4.34,9.527-6.998c15.814-14.387,25.463-32.125,27.809-53.41c3.582-32.502-6.713-60.339-30.102-82.977
		c-14.664-14.194-32.576-22.435-53.143-22.853c-19.414-0.394-37.131,5.755-52.859,17.287c-6.064,4.447-11.201,9.818-15.68,15.861
		c-1.297,1.75-2.203,4.021-4.699,4.591c-1.816-0.735-2.748-2.013-0.863-3.353c2.697-1.915,3.051-5.564,5.889-7.309
		c0.635-0.391,1.309-1.347,0.617-2.151c-0.857-0.997-1.449,0.19-2.096,0.551c-6.377,3.567-10.74,9.106-14.721,15.029
		c-2.449,3.644-6.291,6.084-8.57,9.911c-0.662,1.111-1.768,0.197-2.648-0.145c12.07-18.289,28.064-32.5,46.463-44.059
		c11.354-7.134,23.92-11.351,37.254-12.735c31.328-3.254,56.775,8.522,77.291,31.568c28.764,32.314,35.982,85.263,8.371,125.644
		c-10.287,15.045-21.637,28.576-36.596,38.955C470.432,235.185,465.83,238.189,460.604,240.021z"/>
	<path fill-rule="evenodd" clip-rule="evenodd" fill="#070707" d="M134.203,294.65c1.66,1.908,4.046,0.258,5.904,1.203
		c-0.179,1.125-2.533,0.229-1.877,1.563c0.787,1.6,2.872,0.129,5.226,1.615c-5.284-0.287-9.512,0.4-13.8-0.564
		c-0.884-0.197-2.318-1.922-3.042,0.352c-1.738,1.461-3.221,0.125-4.63-0.566c-9.908-4.857-16.037-13.242-20.004-23.07
		c-8.535-21.139-16.204-42.618-24.25-63.949c-3.525-9.35-6.741-18.809-10.228-28.17c-1.545-4.148-1.763-4.279-6.167-2.76
		c-8.775,3.027-17.404,6.457-26.163,9.531c-1.064,0.373-2.077,0.952-3.193,0.193c0.77-4.149-2.28-2.719-3.843-2.279
		c-3.405,0.959-5.841,3.673-8.018,6.204c-2.003,2.328-1.72-0.474-2.529-0.641c3.165-4.262,7.089-7.277,12.242-9.081
		c12.343-4.32,24.589-8.937,36.764-13.714c2.885-1.132,3.701-0.47,4.681,2.183c11.847,32.032,23.924,63.978,35.672,96.045
		c3.681,10.047,9.859,17.82,18.867,23.289C128.245,293.509,131.388,293.81,134.203,294.65z"/>
	<path fill-rule="evenodd" clip-rule="evenodd" fill="#ECE2DD" d="M126.71,73.124"/>
	<path fill-rule="evenodd" clip-rule="evenodd" fill="#F9FAF8" d="M238.145,181.566c7.811,20.9,15.607,41.807,23.438,62.7
		c4.837,12.909,9.648,25.827,14.646,38.675c1.023,2.633,0.529,3.486-2.102,4.488c-9.399,3.576-18.46,7.996-27.98,11.322
		c-2.532,0.883-3.493,0.783-4.498-1.943c-10.745-29.166-21.65-58.272-32.499-87.4c-8.885-23.855-17.706-47.735-26.688-71.554
		c-1.019-2.702-0.826-3.776,2.118-4.783c8.517-2.913,16.94-6.114,25.304-9.445c2.118-0.843,3.583-0.68,5.416,0.521
		c30.604,20.049,61.251,40.032,91.874,60.052c5.334,3.486,10.846,6.703,16.451,10.347c-3.225-8.598-6.467-17.19-9.668-25.796
		c-8.873-23.852-17.691-47.723-26.645-71.544c-0.85-2.257-0.629-3.129,1.719-3.969c9.67-3.458,19.301-7.032,28.863-10.778
		c2.586-1.014,3.213-0.215,4.076,2.111c13.098,35.328,26.33,70.605,39.488,105.909c6.576,17.641,12.984,35.344,19.676,52.939
		c1.15,3.029,0.598,3.994-2.389,4.995c-7.598,2.55-15.1,5.405-22.535,8.397c-2.145,0.863-3.688,0.564-5.445-0.602
		c-29.879-19.839-59.924-39.434-89.559-59.628C253.717,191.476,246.136,186.469,238.145,181.566z"/>
	<path fill-rule="evenodd" clip-rule="evenodd" fill="#F9FBF7" d="M31.98,190.026c10.065-3.727,20.216-7.246,30.151-11.293
		c3.525-1.437,4.644-0.766,5.892,2.631c10.855,29.529,22.007,58.95,32.794,88.502c3.095,8.48,7.737,15.861,13.802,22.33
		c3.164,3.375,7.323,5.635,11.996,6.621c21.922,7.725,46.768-10.26,47.123-34.09c0.117-7.885-1.924-15.297-4.65-22.6
		c-10.824-28.992-21.552-58.02-32.476-86.974c-1.127-2.987-0.645-4.049,2.306-5.084c9.425-3.309,18.749-6.907,28.103-10.417
		c1.703-0.639,2.884-1.114,3.799,1.378c12.163,33.134,24.79,66.102,36.575,99.368c5.838,16.48,6.94,33.484,1.186,50.553
		c-3.447,10.227-9.443,18.6-17.579,25.295c-16.001,13.164-34.576,20.625-55.234,21.764c-26.969,1.486-46.146-11.561-59.808-33.951
		c-6.432-10.543-9.852-22.361-14.231-33.754c-9.134-23.764-17.971-47.64-26.891-71.484C33.759,195.936,32.926,192.96,31.98,190.026z
		"/>
	<path fill-rule="evenodd" clip-rule="evenodd" fill="#F9FAF7" d="M364.531,80.164c13.168-20.105,31.781-32.396,55.133-37.053
		c29.834-5.948,54.969,3.679,75.75,25.155c20.07,20.74,28.633,46.103,27.281,74.602c-0.834,17.614-6.99,33.553-17.801,47.855
		c-6.697,8.858-15.039,15.335-24.18,21.142c-9.33,4.315-18.83,8.122-29.1,9.564c-27.854,3.912-51.705-4.762-70.734-24.83
		c-19.285-20.339-29.502-44.918-28.395-73.435C353.078,107.919,356.963,93.501,364.531,80.164z"/>
	<path fill-rule="evenodd" clip-rule="evenodd" fill="#58585A" d="M56.491,273.785c0.078,1.123-0.673,1.797-1.368,2.488
		c-4.278,4.26-8.607,8.469-12.824,12.787c-1.552,1.59-2.237,1.631-3.042-0.65c-2.379-6.738-4.894-13.434-7.518-20.08
		c-0.678-1.719-0.484-2.83,0.803-4.086c4.321-4.215,8.546-8.529,12.846-12.766c0.815-0.803,1.926-2.371,2.791-0.15
		c2.797,7.182,5.464,14.414,8.173,21.631C56.448,273.214,56.449,273.509,56.491,273.785z"/>
	<path fill-rule="evenodd" clip-rule="evenodd" fill="#58585A" d="M281.105,98.174c2.623,7.127,5.176,14.418,8.025,21.591
		c0.947,2.38,0.545,3.836-1.252,5.519c-3.693,3.456-7.27,7.049-10.725,10.744c-2.354,2.52-3.809,3.431-5.186-0.865
		c-1.969-6.148-4.35-12.172-6.752-18.169c-0.825-2.061-0.387-3.362,1.133-4.779C271.248,107.647,276.061,102.988,281.105,98.174z"/>
	<path fill-rule="evenodd" clip-rule="evenodd" fill="#58585A" d="M129.634,153.62c3.355,8.688,6.11,16.021,9.042,23.281
		c0.818,2.025-0.503,2.846-1.544,3.894c-4.745,4.777-9.521,9.522-14.547,14.539c-2.908-7.702-5.779-15.355-8.695-22.991
		c-0.458-1.199-0.294-2.057,0.629-3.003C119.408,164.328,124.231,159.253,129.634,153.62z"/>
	<path fill-rule="evenodd" clip-rule="evenodd" fill="#58585A" d="M129.528,214.297c-1.375-3.496-2.319-5.96-3.318-8.403
		c-0.419-1.023-0.344-1.896,0.431-2.706c4.551-4.76,9.121-9.503,13.631-14.301c1.32-1.405,2.06-1.45,2.978,0.441
		c3.052,6.286,2.836,7.78-1.975,12.684C137.47,205.892,133.76,209.864,129.528,214.297z"/>
	<path fill-rule="evenodd" clip-rule="evenodd" fill="#59595A" d="M59.483,283.308c0.409,0.268,0.657,0.393,0.863,0.568
		c2.634,2.248,2.972,9.65,0.535,12.078c-3.99,3.975-8.019,7.912-11.99,11.904c-1.366,1.373-1.964,1.447-2.826-0.621
		c-2.911-6.988-2.967-6.896,2.183-12.193c3.223-3.313,6.262-6.805,9.412-10.191C58.211,284.261,58.898,283.798,59.483,283.308z"/>
	<path fill-rule="evenodd" clip-rule="evenodd" fill="#58585A" d="M281.004,156.069c-0.424-0.133-0.715-0.16-0.93-0.3
		c-2.188-1.427-2.979-8.636-1.107-10.523c4.061-4.096,8.195-8.119,12.234-12.235c1.467-1.493,2.135-1.691,3.131,0.58
		c2.936,6.691,3.057,6.639-2.141,11.825c-2.883,2.876-5.746,5.77-8.66,8.615C282.738,154.805,281.803,155.432,281.004,156.069z"/>
	<path fill-rule="evenodd" clip-rule="evenodd" fill="#FEDC02" d="M331.285,203.376c-5.672-15.308-11.301-30.633-17.029-45.921
		c-7.059-18.842-14.186-37.659-21.324-56.471c-1.176-3.099-0.711-4.741,2.885-5.842c6.732-2.061,13.35-4.572,19.834-7.32
		c2.502-1.061,2.869-0.534,3.703,1.74c9.107,24.803,18.398,49.54,27.574,74.318c7.227,19.51,14.336,39.061,21.553,58.574
		c2.324,6.289,4.738,12.549,7.279,18.755c1.148,2.806,0.564,4.034-2.5,4.647c-5.301,1.064-10.035,3.852-15.082,5.707
		c-3.652,1.342-6.047,0.584-8.824-1.285c-14.73-9.918-29.439-19.867-44.258-29.646c-12.076-7.969-24.781-15.074-36.323-23.738
		c-11.793-8.853-24.263-16.604-36.393-24.899c-2.506-0.56-1.669,0.833-1.182,2.021c3.753,10.509,7.42,21.049,11.277,31.52
		c7.039,19.114,14.168,38.195,21.309,57.271c2.15,5.746,4.417,11.449,6.717,17.139c1.028,2.545,1.8,3.516-2.219,5.082
		c-4.511,2.24-14.756,6.146-15.861,7.047c-6.346,2.637-5.744,3.637-9.604-5.564c-6.143-16.377-12.435-32.697-18.573-49.075
		c-8.294-22.131-16.501-44.294-24.747-66.442c-3.608-9.69-7.184-19.393-10.847-29.062c-2.038-5.38-2.047-5.189,3.284-7.011
		c5.218-1.783,10.304-3.952,15.447-5.954c3.136-1.221,5.887-1.291,8.999,0.826c11.854,8.061,23.91,15.826,35.925,23.647
		c15.832,10.303,31.786,20.418,47.515,30.877c10.055,6.688,19.793,13.852,29.674,20.801c0.504,0.502,1.08,0.977,1.773,0.451
		C332.15,204.9,331.615,204.115,331.285,203.376z"/>
	<path fill-rule="evenodd" clip-rule="evenodd" fill="#F7E673" d="M331.285,203.376c1.201,0.728,2.133,1.861,0.904,2.95
		c-1.063,0.938-2.383,0.528-2.695-1.208C330.533,204.993,331.117,204.4,331.285,203.376z"/>
	<path fill-rule="evenodd" clip-rule="evenodd" fill="#F8E781" d="M231.198,174.017c-1.65-0.645-2.126-2.068-1.071-3.194
		c1.01-1.078,1.925-0.085,2.252,1.173C231.568,172.425,231.343,173.197,231.198,174.017z"/>
	<path fill-rule="evenodd" clip-rule="evenodd" fill="#FEDC02" d="M150.269,302.333c4.924-1.402,8.954-4.566,13.448-6.816
		c1.538-0.713,2.504-2.018,3.462-3.332c2.761-4.492,6.381-8.434,8.243-13.506c4.135-11.266,3.212-22.525-0.754-33.437
		c-10.521-28.949-21.411-57.765-32.224-86.607c-1.183-3.154-1.336-5.241,2.609-6.478c6.071-1.904,12.014-4.24,17.946-6.558
		c3.028-1.183,4.73-0.902,5.995,2.593c8.957,24.747,18.003,49.462,27.275,74.092c3.201,8.504,6.911,16.849,8.957,25.709
		c5.626,24.379,3.583,46.961-16.61,64.725c-9.203,8.096-20.121,13.006-31.654,16.961c-6.83,2.342-13.872,3.082-20.838,4.328
		c-6.444,1.152-12.954-0.396-19.126-2.051c-22.379-5.996-35.276-22.17-43.303-42.65c-11.858-30.258-23.14-60.74-34.642-91.139
		c-1.905-5.031-1.691-5.516,3.241-7.385c6.219-2.355,12.515-4.514,18.708-6.935c2.555-0.999,3.539,0.093,4.323,2.251
		c5.787,15.932,11.542,31.879,17.449,47.768c5.272,14.184,10.391,28.439,16.206,42.4c4.745,11.393,11.73,21.188,23.813,26.121
		c2.31,0.941,4.689,1.521,7.16,1.686c5.066,0.334,10.134,0.391,15.193-0.156C146.687,302.855,148.801,303.642,150.269,302.333z"/>
	<path fill-rule="evenodd" clip-rule="evenodd" fill="#F6E259" d="M167.179,292.185c-0.355,1.941-0.938,3.645-3.462,3.332
		C164.383,293.9,165.431,292.677,167.179,292.185z"/>
	<path fill-rule="evenodd" clip-rule="evenodd" fill="#F6EB87" d="M150.269,302.333c-1.201,2.17-3.22,1.693-5.125,1.584
		C146.393,301.902,148.378,302.273,150.269,302.333z"/>
	<path fill-rule="evenodd" clip-rule="evenodd" fill="#FEDC02" d="M379.52,68.37c10.221-9.964,22.633-16.032,36.09-20.197
		c1.305-0.404,2.773-0.281,4.166-0.401c1.889-1.102,4.236-0.255,6.105-1.435c7.289-0.551,14.58-0.283,21.869-0.049
		c1.551,1.118,3.607,0.483,5.188,1.494c13.338,3.223,25.051,9.685,34.947,18.99c8.719,8.198,16.434,17.402,21.328,28.545
		c8.258,18.801,12.047,38.312,7.75,58.691c-3.221,15.278-10.023,28.679-20.979,40.273c-10.52,11.134-23.207,17.344-37.605,21.247
		c-10.494,2.845-21.041,3.363-31.568,1.325c-16.086-3.114-30.352-9.702-41.531-22.388c-5.738-6.513-11.473-12.896-15.816-20.457
		c-13.182-22.953-15.951-47.173-9.238-72.663c2.779-10.56,7.998-19.761,14.857-28.132C376.627,71.66,378.008,69.956,379.52,68.37z"
		/>
	<path fill-rule="evenodd" clip-rule="evenodd" fill="#F7EA81" d="M379.52,68.37c-0.734,2.297-2.193,3.93-4.438,4.844
		C375.691,70.803,377.402,69.4,379.52,68.37z"/>
	<path fill-rule="evenodd" clip-rule="evenodd" fill="#F7E153" d="M425.881,46.337c-1.588,2.379-3.955,1.445-6.105,1.435
		C421.387,45.483,423.729,46.311,425.881,46.337z"/>
	<path fill-rule="evenodd" clip-rule="evenodd" fill="#F7EFA0" d="M452.938,47.782c-1.902,0.109-3.902,0.549-5.188-1.494
		C449.643,46.224,451.676,45.665,452.938,47.782z"/>
	<path fill-rule="evenodd" clip-rule="evenodd" fill="#F9FAF7" d="M424.969,185.721c-14.553-4.328-23.896-14.7-30.803-27.433
		c-6.811-12.558-10.441-26.119-8.799-40.514c2.121-18.583,10.813-33.024,29.74-40.367c1.92-0.745,3.771-1.663,5.656-2.502
		c1.824-1.207,4.146-0.524,6.014-1.571c7.262,0.062,14.514-0.928,21.707,1.5c11.725,3.958,21.092,10.95,27.738,21.224
		c5.244,8.106,8.996,16.996,11.42,26.427c5.781,22.501-0.668,46.638-22.672,59.074c-10.611,5.997-22.135,7.102-34.031,5.747
		C429.162,185.972,426.734,187.09,424.969,185.721z"/>
	<path fill-rule="evenodd" clip-rule="evenodd" fill="#F7EFA7" d="M424.969,185.721c2.102,0.104,4.467-0.773,5.971,1.585
		C428.816,187.275,426.461,188.122,424.969,185.721z"/>
	<path fill-rule="evenodd" clip-rule="evenodd" fill="#F3E24F" d="M426.777,73.334c-1.713,1.643-3.813,1.804-6.014,1.571
		C422.268,72.464,424.637,73.337,426.777,73.334z"/>
	<path fill-rule="evenodd" clip-rule="evenodd" fill="#020202" d="M485.291,138.697c-0.074,20.492-11.324,36.082-30.82,42.69
		c-18.598,6.303-37.854,0.743-49.797-15.019c-12.418-16.39-18.73-34.685-13.76-55.342c4.672-19.408,18.143-29.941,37.197-33.178
		c17.953-3.049,32.541,3.904,42.883,18.409C479.92,108.778,485.357,122.927,485.291,138.697z"/>
	<path fill-rule="evenodd" clip-rule="evenodd" fill="#FBFCFB" d="M457.891,155.473c0.26,15.889-6.387,22.617-19.289,22.333
		c-13.297-0.294-23.293-6.867-30.777-17.307c-8.219-11.464-12.793-24.287-12.408-38.603c0.26-9.631,5.971-15.682,15.637-16.456
		c13.119-1.051,23.691,4.191,31.898,13.996C452.334,130.646,457.246,143.792,457.891,155.473z"/>
	<path fill-rule="evenodd" clip-rule="evenodd" fill="#58585A" d="M456.549,127.887c-1.111-0.143-1.182-0.974-1.5-1.543
		c-3.242-5.799-7.002-11.212-12.018-15.623c-1.441-1.268-1.346-2.179-0.129-3.451c4.453-4.656,8.893-9.326,13.254-14.066
		c1.463-1.59,2.605-1.673,4.186-0.13c4.984,4.863,8.424,10.772,11.711,16.801c0.707,1.299,0.402,2.41-0.615,3.423
		c-4.582,4.563-9.148,9.142-13.732,13.703C457.326,127.376,456.854,127.655,456.549,127.887z"/>
	<path fill-rule="evenodd" clip-rule="evenodd" fill="#58585A" d="M463.018,146.993c-1.209-3.886-1.889-6.434-2.811-8.89
		c-0.561-1.494,0.047-2.388,0.99-3.33c4.279-4.267,8.563-8.53,12.809-12.831c1.461-1.48,2.389-1.7,3.113,0.663
		c1.42,4.643,1.984,8.688-2.609,12.381C470.506,138.205,467.311,142.428,463.018,146.993z"/>
	<path fill-rule="evenodd" clip-rule="evenodd" fill="#FD1B22" d="M403.664,128.197c-0.18-12.405,4.564-16.323,14.203-14.646
		c7.342,1.277,13.547,4.701,18.313,10.385c8.787,10.48,13.609,22.534,13.551,36.334c-0.025,6.258-2.596,9.044-8.877,9.382
		c-8.785,0.471-16.336-2.646-22.342-8.974C409.135,150.801,404.668,138.744,403.664,128.197z"/>
</g>
</svg>
