<?xml version="1.0" encoding="utf-8"?>
<!-- Generator: Adobe Illustrator 16.0.0, SVG Export Plug-In . SVG Version: 6.00 Build 0)  -->
<!DOCTYPE svg PUBLIC "-//W3C//DTD SVG 1.1//EN" "http://www.w3.org/Graphics/SVG/1.1/DTD/svg11.dtd">
<svg version="1.1" id="Capa_1" xmlns="http://www.w3.org/2000/svg" xmlns:xlink="http://www.w3.org/1999/xlink" x="0px" y="0px"
	 width="496px" height="496px" viewBox="0 0 496 496" enable-background="new 0 0 496 496" xml:space="preserve">
<path fill="#25DBE1" d="M15.699,304.106c-0.649,63.246,26.476,123.607,74.237,165.216c-0.853-8.357-1.181-16.762-0.985-25.162
	c0.298-27.881-24.208-81.868-12.064-106.982c20.714-39.799,73.918-75.84,113.833-96.48c30.994-15.714,75.877-17.831,110.573-15.616
	l-1.075,94.172l179.579-155.208L305.282,12.295l-1.141,69.066c-31.595,0.324-63.147,2.381-94.513,6.165
	c-39.105,7.529-81.186,23.594-112.737,47.844C44.106,175.582,17.615,237.887,15.699,304.106z"/>
<path d="M8.002,303.979c-0.501,65.431,27.51,127.85,76.771,171.063c2.378,2.119,5.813,2.563,8.647,1.109
	c2.839-1.452,4.482-4.495,4.14-7.653c-0.825-8.049-12.288-59.764-12.102-67.853c0.239-26.761-0.357-40.33,11.325-64.421
	c19.977-38.4,60.267-60.409,98.813-80.255c27.451-14.036,71.492-21.773,102.32-20.708l2.301,83.993
	c-0.05,3.011,2.229,4.59,4.951,5.879c2.726,1.293-2.31,1.934,0,0l182.029-143.054c1.703-1.43,0.181-11.047,0.218-13.272
	c0.036-2.222-0.897-4.351-2.553-5.837L310.425,6.585c-2.244-2.007-5.456-2.526-8.224-1.323c-2.763,1.199-4.566,3.901-4.616,6.907
	l-1.018,61.646c-29.566,0.433-59.09,2.497-88.432,6.178c-40.294,7.758-78.205,24.817-110.695,49.82
	C42.677,171.327,9.774,235.396,8.002,303.979z M15.681,306.802c1.709-63.937,26.787-123.847,77.858-162.532
	c22.895-27.129,78.154-49.451,116.088-56.744c30.894-3.671,63.403-5.829,94.513-6.165c4.181-0.03-0.023,1.454,0.046-2.717
	l1.097-66.348l168.925,150.379L307.866,292.994l-2.56-78.083c0.069-4.193-7.892-5.187-12.098-5.316l-12.194,0.439
	c-34.99-1.812-76.28,5.98-107.469,21.904c-41.365,21.375-82.371,55.578-99.004,91.766c-10.072,27.342-15.447,75.406-4.989,108.022
	c-0.034,2.098,11.669,28.259,11.686,30.256C43.368,422.884,14.841,361.157,15.681,306.802z"/>
</svg>
