<?xml version="1.0" encoding="utf-8"?>
<!-- Generator: Adobe Illustrator 16.0.0, SVG Export Plug-In . SVG Version: 6.00 Build 0)  -->
<!DOCTYPE svg PUBLIC "-//W3C//DTD SVG 1.1//EN" "http://www.w3.org/Graphics/SVG/1.1/DTD/svg11.dtd">
<svg version="1.1" id="Capa_1" xmlns="http://www.w3.org/2000/svg" xmlns:xlink="http://www.w3.org/1999/xlink" x="0px" y="0px"
	 width="496px" height="496px" viewBox="0 0 496 496" enable-background="new 0 0 496 496" xml:space="preserve">
<path fill="#25DBE1" d="M312.797,484.728c63.25,0.03,123.343-27.685,164.483-75.85c-8.35,0.936-16.75,1.346-25.152,1.232
	c-27.883-0.025-81.627,25.007-106.859,13.109c-39.999-20.323-76.559-73.174-97.588-112.883
	c-16.015-30.839-18.573-75.699-16.696-110.416l94.178,0.155L168.206,22.023L18.169,198.012l69.075,0.464
	c0.632,31.591,2.999,63.122,7.088,94.448c7.911,39.032,24.387,80.951,48.944,112.265C184.002,457.58,246.563,483.46,312.797,484.728
	z"/>
<path d="M312.744,492.426c65.433-0.139,127.575-28.76,170.305-78.44c2.097-2.397,2.507-5.839,1.025-8.656
	c-1.48-2.825-4.538-4.438-7.693-4.065c-8.041,0.904-59.641,12.872-67.73,12.766c-26.763,0.022-40.325,0.751-64.529-10.695
	c-38.594-19.6-60.995-59.674-81.217-98.023c-14.305-27.312-22.472-71.275-21.708-102.113l83.966-3.121
	c3.011,0.021,4.567-2.273,5.83-5.009c1.267-2.737,1.956,2.291,0,0L186.166,14.446c-1.446-1.69-11.049-0.073-13.274-0.088
	c-2.222-0.015-4.341,0.94-5.812,2.609L12.408,192.924c-1.986,2.265-2.472,5.481-1.242,8.238c1.225,2.75,3.944,4.528,6.95,4.548
	l61.653,0.415c0.725,29.561,3.075,59.062,7.043,88.368c8.152,40.216,25.582,77.958,50.9,110.202
	C179.76,459.049,244.15,491.324,312.744,492.426z M315.492,484.719c-63.949-1.083-124.103-25.574-163.286-76.265
	c-27.351-22.628-50.21-77.667-57.875-115.528c-3.973-30.856-6.448-63.343-7.089-94.448c-0.07-4.18,1.454,0.009-2.716-0.019
	l-66.356-0.447L166.89,27.624l131.939,165.059l-78.053,3.324c-4.195-0.029-5.109,7.942-5.198,12.149l0.559,12.188
	c-1.471,35.006,6.726,76.218,22.954,107.25c21.778,41.153,56.38,81.822,92.729,98.103c27.439,9.804,75.554,14.709,108.066,3.932
	c2.099,0.014,28.144-11.945,30.141-11.98C431.299,455.896,369.854,485.028,315.492,484.719z"/>
</svg>
