<?xml version="1.0" encoding="utf-8"?>
<!-- Generator: Adobe Illustrator 16.0.0, SVG Export Plug-In . SVG Version: 6.00 Build 0)  -->
<!DOCTYPE svg PUBLIC "-//W3C//DTD SVG 1.1//EN" "http://www.w3.org/Graphics/SVG/1.1/DTD/svg11.dtd">
<svg version="1.1" id="Capa_1" xmlns="http://www.w3.org/2000/svg" xmlns:xlink="http://www.w3.org/1999/xlink" x="0px" y="0px"
	 width="496px" height="496px" viewBox="0 0 496 496" enable-background="new 0 0 496 496" xml:space="preserve">
<path fill="#25DBE1" d="M141.96,100.595c-24.431,31.413-40.74,73.397-48.496,112.46c-3.964,31.343-6.205,62.883-6.711,94.476
	l-69.073,0.739l150.738,175.389l156.246-178.676l-94.178,0.53c-2.015-34.709,0.365-79.579,16.256-110.481
	c20.871-39.792,57.219-92.79,97.137-113.271c25.185-11.999,79.026,12.819,106.91,12.683c8.401-0.147,16.804,0.229,25.156,1.132
	C434.616,47.575,374.413,20.1,311.163,20.382C244.935,21.914,182.478,48.042,141.96,100.595z"/>
<path d="M136.4,101.111c-25.19,32.346-42.47,70.158-50.461,110.405c-3.852,29.321-6.083,58.832-6.691,88.396l-61.65,0.661
	c-3.006,0.031-5.718,1.82-6.932,4.575c-1.218,2.762-0.72,5.976,1.275,8.233l155.372,175.339c1.477,1.663,3.601,2.609,5.822,2.586
	c2.226-0.024,11.834,1.555,13.273-0.142l144.105-181.199c1.947-2.3,1.279,2.731,0,0c-1.273-2.732-2.838-5.02-5.85-4.986
	l-83.978-2.786c-0.886-30.835,7.104-74.831,21.301-102.198c20.069-38.431,42.31-78.594,80.825-98.347
	c24.158-11.541,37.724-10.867,64.486-10.951c8.088-0.139,59.736,11.623,67.78,12.495c3.155,0.36,6.208-1.265,7.677-4.097
	c1.471-2.823,1.047-6.262-1.06-8.651c-42.928-49.51-105.183-77.883-170.616-77.76C242.491,14.06,178.229,46.591,136.4,101.111z
	 M468.658,86.834c-1.997-0.027-28.089-11.882-30.188-11.86c-32.556-10.647-80.65-5.551-108.051,4.362
	c-36.282,16.426-70.722,57.233-92.335,98.473c-16.105,31.094-24.137,72.341-22.527,107.34l-0.509,12.189
	c0.105,4.207,1.051,12.175,5.244,12.129l78.068,3.012L167.079,478.064L17.681,308.271l66.354-0.712
	c4.17-0.045,2.664,4.15,2.717-0.029c0.516-31.107,2.862-63.604,6.712-94.476c7.514-37.891,30.154-93.021,57.414-115.758
	c38.98-50.846,99.037-75.577,162.98-76.914C368.218,19.854,429.78,48.74,468.658,86.834z"/>
</svg>
