<?xml version="1.0" encoding="utf-8"?>
<!-- Generator: Adobe Illustrator 16.0.0, SVG Export Plug-In . SVG Version: 6.00 Build 0)  -->
<!DOCTYPE svg PUBLIC "-//W3C//DTD SVG 1.1//EN" "http://www.w3.org/Graphics/SVG/1.1/DTD/svg11.dtd">
<svg version="1.1" id="Capa_1" xmlns="http://www.w3.org/2000/svg" xmlns:xlink="http://www.w3.org/1999/xlink" x="0px" y="0px"
	 width="496px" height="496px" viewBox="0 0 496 496" enable-background="new 0 0 496 496" xml:space="preserve">
<path fill="#25DBE1" d="M193.46,18.747C130.273,15.929,69.017,40.969,25.794,87.274c8.382-0.566,16.793-0.606,25.182-0.123
	c27.854,1.254,82.65-21.385,107.334-8.388c39.064,22.066,73.259,76.477,92.519,117.074c14.641,31.515,15.219,76.444,11.813,111.044
	l-94.079-4.305L317.52,487.374l157.647-169.206l-68.987-3.508c0.761-31.588-0.214-63.192-2.919-94.668
	c-6.183-39.342-20.796-81.947-43.949-114.312C320.934,51.544,259.574,22.933,193.46,18.747z"/>
<path d="M193.852,11.059C128.477,8.313,65.133,34.168,20.256,81.917c-2.2,2.303-2.762,5.723-1.406,8.603
	c1.354,2.888,4.339,4.635,7.507,4.401c8.073-0.549,60.15-10.231,68.228-9.768c26.737,1.157,40.319,1.027,63.995,13.528
	c37.693,21.282,58.307,62.304,76.818,101.507c13.087,27.916,19.309,72.197,17.187,102.971l-84.021-0.582
	c-3.007-0.153-4.664,2.069-6.045,4.747c-1.386,2.679-1.853-2.375,0,0l136.726,186.828c1.37,1.752,11.035,0.56,13.258,0.673
	c2.219,0.112,4.378-0.748,5.921-2.351l162.275-168.97c2.084-2.175,2.711-5.367,1.604-8.175c-1.103-2.802-3.741-4.697-6.743-4.85
	l-61.575-3.132c0.579-29.563-0.469-59.14-3.142-88.592c-6.372-40.537-22.121-79.01-45.994-112.338
	C325.237,50.264,262.331,15.182,193.852,11.059z M190.767,18.637c63.84,3.9,122.855,31.018,159.767,83.387
	c26.327,23.811,46.739,79.804,52.728,117.966c2.609,31.001,3.65,63.566,2.92,94.668c-0.114,4.179-1.452-0.073,2.713,0.139
	l66.272,3.371L319.081,481.837L194.544,311.124l78.124,0.119c4.189,0.214,5.454-7.709,5.729-11.908l-0.021-12.201
	c3.012-34.907-3.36-76.44-18.205-108.158c-19.943-42.073-52.719-84.228-88.316-102.093c-26.98-11.004-74.832-18.024-107.788-8.69
	c-2.095-0.106-28.642,10.693-30.639,10.641C73.803,42.328,136.472,15.932,190.767,18.637z"/>
</svg>
