<?xml version="1.0" encoding="utf-8"?>
<!-- Generator: Adobe Illustrator 16.0.0, SVG Export Plug-In . SVG Version: 6.00 Build 0)  -->
<!DOCTYPE svg PUBLIC "-//W3C//DTD SVG 1.1//EN" "http://www.w3.org/Graphics/SVG/1.1/DTD/svg11.dtd">
<svg version="1.1" id="Capa_1" xmlns="http://www.w3.org/2000/svg" xmlns:xlink="http://www.w3.org/1999/xlink" x="0px" y="0px"
	 width="496px" height="496px" viewBox="0 0 496 496" enable-background="new 0 0 496 496" xml:space="preserve">
<path fill="#25DBE1" d="M96.402,358.964c31.67,24.097,73.825,39.959,112.968,47.3c31.383,3.631,62.946,5.537,94.542,5.708
	l1.473,69.062l173.779-152.591L298.839,174.101l1.529,94.167c-34.686,2.384-79.578,0.48-110.647-15.083
	c-40.012-20.447-93.392-56.231-114.296-95.929C63.16,132.2,87.405,78.097,86.973,50.217c-0.237-8.399,0.05-16.806,0.865-25.167
	c-47.56,41.837-74.395,102.329-73.441,165.572C16.631,256.83,43.422,319.006,96.402,358.964z"/>
<path d="M96.976,364.519c32.611,24.846,70.604,41.723,110.935,49.287c29.36,3.541,58.892,5.458,88.461,5.752l1.315,61.64
	c0.063,3.006,1.881,5.698,4.648,6.883c2.775,1.189,5.983,0.656,8.22-1.362l173.68-157.225c1.647-1.494,2.571-3.628,2.524-5.849
	c-0.048-2.226,1.429-11.851-0.282-13.271L303.759,168.2c-2.32-1.923,2.718-1.308,0,0c-2.719,1.302-4.989,2.891-4.924,5.902
	l-1.895,84.002c-30.824,1.213-74.902-6.31-102.419-20.215c-38.641-19.661-79.038-41.473-99.199-79.777
	c-11.797-24.034-11.267-37.606-11.635-64.366C83.463,85.66,94.676,33.89,95.463,25.837c0.327-3.159-1.331-6.194-4.178-7.633
	c-2.838-1.44-6.272-0.98-8.64,1.151C33.594,62.806,5.884,125.359,6.701,190.788C8.804,259.357,42.016,323.271,96.976,364.519z
	 M79.174,32.43c-0.005,1.997-11.583,28.213-11.539,30.312c-10.301,32.667-4.695,80.705,5.509,107.999
	c16.811,36.106,57.98,70.11,99.447,91.285c31.264,15.774,72.594,23.368,107.574,21.387l12.194,0.38
	c4.205-0.15,12.163-1.181,12.072-5.373l2.183-78.095l166.97,129.516L305.384,481.032l-1.416-66.342
	c-0.089-4.17,4.122-2.708-0.059-2.717c-31.11-0.186-63.631-2.188-94.542-5.709c-37.969-7.111-93.335-29.165-116.361-56.183
	c-51.257-38.438-76.624-98.229-78.639-162.154C13.263,133.576,41.495,71.711,79.174,32.43z"/>
</svg>
