<?xml version="1.0" encoding="utf-8"?>
<!-- Generator: Adobe Illustrator 16.0.0, SVG Export Plug-In . SVG Version: 6.00 Build 0)  -->
<!DOCTYPE svg PUBLIC "-//W3C//DTD SVG 1.1//EN" "http://www.w3.org/Graphics/SVG/1.1/DTD/svg11.dtd">
<svg version="1.1" id="Capa_1" xmlns="http://www.w3.org/2000/svg" xmlns:xlink="http://www.w3.org/1999/xlink" x="0px" y="0px"
	 width="496px" height="496px" viewBox="0 0 496 496" enable-background="new 0 0 496 496" xml:space="preserve">
<path fill="#25DBE1" d="M479.323,187.027c-0.303-63.249-28.334-123.195-76.716-164.081c0.979,8.344,1.435,16.742,1.365,25.145
	c0.122,27.883,25.437,81.495,13.673,106.79c-20.112,40.105-72.77,76.943-112.367,98.182
	c-30.755,16.178-75.601,18.972-110.326,17.277l-0.342-94.177L17.386,334.056l176.777,149.107l0.101-69.076
	c31.587-0.799,63.104-3.331,94.409-7.586c38.989-8.116,80.821-24.813,112.005-49.535
	C452.854,315.964,478.404,253.268,479.323,187.027z"/>
<path d="M487.021,187.04c-0.483-65.431-29.432-127.422-79.337-169.89c-2.408-2.083-5.852-2.476-8.661-0.979
	c-2.817,1.495-4.415,4.562-4.025,7.715c0.947,8.036,13.187,59.572,13.122,67.663c0.164,26.762,0.964,40.32-10.354,64.584
	c-19.396,38.697-59.352,61.309-97.594,81.732c-27.236,14.448-71.156,22.847-101.998,22.246l-3.564-83.948
	c0.004-3.011-2.297-4.556-5.039-5.804c-2.745-1.252,2.28-1.968,0,0L9.715,316.136c-1.682,1.455-0.015,11.049-0.019,13.274
	c-0.003,2.222,0.963,4.336,2.64,5.798l176.77,153.742c2.274,1.974,5.494,2.442,8.243,1.198c2.744-1.239,4.507-3.969,4.512-6.975
	l0.09-61.654c29.556-0.88,59.045-3.386,88.329-7.509c40.173-8.364,77.822-25.991,109.933-51.479
	C454.345,320.198,486.281,255.639,487.021,187.04z M479.299,184.332c-0.746,63.955-24.919,124.236-75.403,163.686
	c-22.482,27.47-77.4,50.62-115.221,58.483c-30.835,4.136-63.308,6.782-94.409,7.587c-4.18,0.092,0.001-1.454-0.005,2.717
	l-0.098,66.357L22.994,335.342l164.361-132.807l3.735,78.035c-0.007,4.194,7.969,5.067,12.176,5.134l12.186-0.623
	c35.013,1.286,76.181-7.128,107.127-23.519c41.038-21.995,81.524-56.811,97.612-93.246c9.659-27.49,14.311-75.63,3.362-108.085
	c0.003-2.098-12.094-28.08-12.14-30.076C449.867,68.68,479.323,129.97,479.299,184.332z"/>
</svg>
