<?xml version="1.0" encoding="utf-8"?>
<!-- Generator: Adobe Illustrator 16.0.0, SVG Export Plug-In . SVG Version: 6.00 Build 0)  -->
<!DOCTYPE svg PUBLIC "-//W3C//DTD SVG 1.1//EN" "http://www.w3.org/Graphics/SVG/1.1/DTD/svg11.dtd">
<svg version="1.1" id="Capa_1" xmlns="http://www.w3.org/2000/svg" xmlns:xlink="http://www.w3.org/1999/xlink" x="0px" y="0px"
	 width="496px" height="496px" viewBox="0 0 496 496" enable-background="new 0 0 496 496" xml:space="preserve">
<path fill="#25DBE1" d="M399.109,147.835c-31.323-24.546-73.247-41.009-112.281-48.908c-31.328-4.079-62.86-6.436-94.451-7.058
	l-0.486-69.075L15.949,172.887l178.102,156.9l-0.185-94.179c34.716-1.888,79.578,0.657,110.421,16.662
	c39.716,21.017,92.579,57.56,112.914,97.552c11.906,25.229-13.109,78.979-13.075,106.863c0.116,8.402-0.291,16.803-1.225,25.152
	c48.152-41.154,75.849-101.256,75.798-164.507C477.411,251.098,451.512,188.546,399.109,147.835z"/>
<path d="M398.613,142.272c-32.253-25.309-70.001-42.727-110.219-50.866c-29.307-3.959-58.809-6.299-88.371-7.015l-0.435-61.652
	c-0.021-3.006-1.799-5.725-4.55-6.949c-2.757-1.229-5.973-0.742-8.238,1.245L10.893,171.763c-1.668,1.47-2.623,3.591-2.607,5.813
	c0.016,2.226-1.598,11.828,0.092,13.273l180.669,144.77c2.292,1.955-2.736,1.269,0,0c2.737-1.264,5.03-2.819,5.008-5.831
	l3.094-83.967c30.838-0.773,74.804,7.379,102.12,21.676c38.356,20.21,78.438,42.598,98.05,81.186
	c11.452,24.2,10.729,37.763,10.714,64.525c0.109,8.089-11.842,59.693-12.744,67.734c-0.372,3.154,1.242,6.213,4.068,7.691
	c2.817,1.481,6.258,1.07,8.655-1.027c49.667-42.746,78.269-104.896,78.386-170.33C485.275,248.683,452.979,184.302,398.613,142.272z
	 M411.67,474.582c0.034-1.997,11.985-28.046,11.971-30.145c10.767-32.516,5.847-80.629-3.966-108.065
	c-16.293-36.343-56.973-70.932-98.133-92.697c-31.035-16.219-72.252-24.402-107.257-22.92l-12.188-0.554
	c-4.207,0.09-12.178,1.006-12.148,5.2l-3.298,78.056L21.55,171.568L191.891,22.794l0.468,66.355c0.029,4.17-4.161,2.648,0.02,2.717
	c31.105,0.63,63.593,3.096,94.451,7.059c37.863,7.653,92.909,30.495,115.546,57.839c50.703,39.167,75.213,99.313,76.315,163.261
	C479.019,374.388,449.906,435.843,411.67,474.582z"/>
</svg>
